<?xml version="1.0" standalone="no"?>
<!DOCTYPE svg PUBLIC "-//W3C//DTD SVG 1.1//EN" "http://www.w3.org/Graphics/SVG/1.1/DTD/svg11.dtd" >
<svg>
<metadata>
Created by FontForge 20090914 at Fri Nov 25 02:57:28 2011
 By www-data
HTF Knockout &#194;&#169; 1994-7 The Hoefler Type Foundry, Inc. http://www.typography.com
</metadata>
<defs>
<font id="Knockout-HTF46-Flyweight" horiz-adv-x="200" >
  <font-face 
    font-family="Knockout"
    font-weight="500"
    font-stretch="normal"
    units-per-em="1000"
    panose-1="2 0 6 3 0 0 0 0 0 0"
    ascent="800"
    descent="-200"
    x-height="480"
    cap-height="666"
    bbox="-221 -194 868 818"
    underline-thickness="47"
    underline-position="-107"
    unicode-range="U+0020-U+FB02"
  />
<missing-glyph horiz-adv-x="500" 
 />
    <glyph glyph-name=".notdef" horiz-adv-x="500" 
 />
    <glyph glyph-name="space" unicode=" " horiz-adv-x="91" 
 />
    <glyph glyph-name="exclam" unicode="!" horiz-adv-x="113" 
d="M87 377l-21 -219h-19l-21 219v289h61v-289zM83 0h-54v96h54v-96z" />
    <glyph glyph-name="quotedbl" unicode="&#x22;" horiz-adv-x="143" 
d="M138 666l-38 -187h-31l27 187h42zM72 666l-34 -187h-29l21 187h42z" />
    <glyph glyph-name="numbersign" unicode="#" horiz-adv-x="292" 
d="M294 427h-70l-22 -188h73v-35h-77l-23 -204h-37l23 204h-60l-23 -204h-37l23 204h-67v35h71l21 188h-73v35h77l24 204h37l-23 -204h60l23 204h37l-23 -204h66v-35zM187 427h-60l-22 -188h60z" />
    <glyph glyph-name="dollar" unicode="$" horiz-adv-x="231" 
d="M87 668l-0.000976562 60.998h57v-58c44 -10.667 66 -49 66 -115v-93h-60v98c0 29.333 -9.33301 44 -28 44c-22.667 0 -34 -13.667 -34 -41c0 -26.667 2.66699 -51.667 8 -75s10.833 -42.166 16.5 -56.499s16.834 -40.166 33.501 -77.499c44.667 -102.667 67 -181 67 -235
c0 -68 -23 -109.333 -69 -124v-60h-57v60c-44.667 12 -67 50 -67 114v85h60v-93c0 -30.667 11 -46 33 -46c24 0 36 15.333 36 46c0 56 -17.667 123 -53 201c-49.333 110 -74 189.667 -74 239c0 69.333 21.667 111.333 65 126z" />
    <glyph glyph-name="percent" unicode="%" horiz-adv-x="348" 
d="M145 418c0 -23.333 -6 -42 -18 -56s-27.333 -21 -46 -21s-34 7 -46 21s-18 32.667 -18 56v179c0 24 6 42.833 18 56.5s27.333 20.5 46 20.5s34 -6.83301 46 -20.5s18 -32.5 18 -56.5v-179zM324 664l-277 -682l-23 18l277 681zM330 66c0 -23.333 -5.83301 -42 -17.5 -56
s-26.834 -21 -45.501 -21s-34 7 -46 21s-18 32.667 -18 56v180c0 23.333 6 41.833 18 55.5s27.333 20.5 46 20.5s33.834 -6.83301 45.501 -20.5s17.5 -32.167 17.5 -55.5v-180zM101 408v199c0 15.333 -6.66699 23 -20 23c-5.33301 0 -10 -2.16699 -14 -6.5
s-6 -9.83301 -6 -16.5v-199c0 -6.66699 2 -12.167 6 -16.5s8.66699 -6.5 14 -6.5c13.333 0 20 7.66699 20 23zM287 56v199c0 6.66699 -2 12.167 -6 16.5s-8.66699 6.5 -14 6.5c-13.333 0 -20 -7.66699 -20 -23v-199c0 -14.667 6.66699 -22 20 -22c5.33301 0 10 2 14 6
s6 9.33301 6 16z" />
    <glyph glyph-name="ampersand" unicode="&#x26;" horiz-adv-x="315" 
d="M306 92c0 -66.667 -19 -99.9971 -57 -99.9971c-26.667 0 -47 13.333 -61 40c-17.333 -26.667 -41.333 -40 -72 -40c-29.333 0 -53.166 14.167 -71.499 42.5s-27.5 65.166 -27.5 110.499c0 79.333 26.667 151 80 215c-20 65.333 -30 120.666 -30 165.999
c0 46 8.33301 82.167 25 108.5s40.334 39.5 71.001 39.5c27.333 0 47.666 -12 60.999 -36s20 -56 20 -96c0 -66.667 -26 -134.334 -78 -203.001c10 -80.667 19.333 -137.667 28 -171c19.333 51.333 29 107 29 167h57c-1.33301 -38.667 -7.33301 -81.167 -18 -127.5
s-24.334 -84.5 -41.001 -114.5c3.33301 -20 12 -30 26 -30s21 11.333 21 34v38h38v-43zM183 539.003c0 40 -8.33301 60.001 -25 60.001c-18.667 0 -28 -21 -28 -63c0 -26 5.66699 -67.333 17 -124c24 39.333 36 81.666 36 126.999zM155 84.0039
c-17.333 45.333 -30.667 109.667 -40 193c-22 -32.667 -33 -72.667 -33 -120c0 -30 4.16699 -52.833 12.5 -68.5s19.5 -23.5 33.5 -23.5c12 0 21 6.33301 27 19z" />
    <glyph glyph-name="quotesingle" unicode="'" horiz-adv-x="104" 
d="M101 666l-50 -187h-35l31 187h54z" />
    <glyph glyph-name="parenleft" unicode="(" horiz-adv-x="174" 
d="M161 -102l-16 -11c-31.333 44 -55.333 97.667 -72 161s-25 150.666 -25 261.999s8.33301 198.666 25 261.999s40.667 117 72 161l16 -11c-22 -34.667 -37.333 -81.167 -46 -139.5s-13 -149.166 -13 -272.499s4.33301 -214.166 13 -272.499s24 -104.833 46 -139.5z" />
    <glyph glyph-name="parenright" unicode=")" horiz-adv-x="174" 
d="M126 310c0 -111.333 -8.33301 -198.666 -25 -261.999s-40.667 -117 -72 -161l-16 11c22 34.667 37.333 81.167 46 139.5s13 149.166 13 272.499s-4.33301 214.166 -13 272.499s-24 104.833 -46 139.5l16 11c31.333 -44 55.333 -97.667 72 -161s25 -150.666 25 -261.999z
" />
    <glyph glyph-name="asterisk" unicode="*" horiz-adv-x="182" 
d="M172 541l-7.99902 -13.001c-2 -2.66699 -5.66699 -2.66699 -11 0c-18 11.333 -35.667 23.333 -53 36c3.33301 -18.667 5 -40 5 -64c0 -5.33301 -1.66699 -8 -5 -8h-16c-3.33301 0 -5 2.66699 -5 8c0 24 1.66699 45.333 5 64c-18 -14.667 -35.667 -26.667 -53 -36
c-4.66699 -3.33301 -8 -3.33301 -10 0l-8 13c-2 2.66699 -0.333008 5.66699 5 9c24.667 13.333 44 22.666 58 27.999c-24 8.66699 -43.333 18 -58 28c-4.66699 2.66699 -6.66699 5.33398 -6 8.00098l8 14c2 2.66699 5.66699 2.66699 11 0c18.667 -11.333 36 -23.333 52 -36
c-3.33301 23.333 -5 44.666 -5 63.999c0 6 1.66699 9 5 9h18c3.33301 0 5 -3 5 -9c0 -25.333 -1.66699 -46.666 -5 -63.999c17.333 14.667 35 26.667 53 36c4.66699 3.33301 8 3.33301 10 0l8 -14c1.33301 -2 -0.333984 -4.66699 -5.00098 -8
c-18 -11.333 -37.333 -20.666 -58 -27.999c17.333 -6.66699 36.333 -16 57 -28c5.33301 -2.66699 7.33301 -5.66699 6 -9z" />
    <glyph glyph-name="plus" unicode="+" horiz-adv-x="223" 
d="M197 310h-58v-64h-55v64h-58v54h58v64h55v-64h58v-54z" />
    <glyph glyph-name="comma" unicode="," horiz-adv-x="92" 
d="M74 9c0 -23.333 -4.83301 -42.167 -14.5 -56.5s-23.5 -21.5 -41.5 -21.5v20c17.333 0 26 16.333 26 49h-26v100h56v-91z" />
    <glyph glyph-name="hyphen" unicode="-" horiz-adv-x="132" 
d="M124 286h-116v59h116v-59z" />
    <glyph glyph-name="period" unicode="." horiz-adv-x="92" 
d="M74 0h-56v100h56v-100z" />
    <glyph glyph-name="slash" unicode="/" horiz-adv-x="181" 
d="M194 729l-173 -793h-40l173 793h40z" />
    <glyph glyph-name="zero" unicode="0" horiz-adv-x="242" 
d="M216 104c0 -33.333 -8.83301 -60.333 -26.5 -81s-40.5 -31 -68.5 -31c-27.333 0 -50 10.333 -68 31s-27 47.667 -27 81v458c0 33.333 9 60.333 27 81s40.667 31 68 31c28 0 50.833 -10.333 68.5 -31s26.5 -47.667 26.5 -81v-458zM149 93v480c0 8.66699 -2.66699 16 -8 22
s-12 9 -20 9s-14.667 -3 -20 -9s-8 -13.333 -8 -22v-480c0 -8.66699 2.66699 -16 8 -22s12 -9 20 -9s14.667 3 20 9s8 13.333 8 22z" />
    <glyph glyph-name="one" unicode="1" horiz-adv-x="146" 
d="M106 0h-66v634c20.667 0 31 10.667 31 32h35v-666z" />
    <glyph glyph-name="two" unicode="2" horiz-adv-x="202" 
d="M193 543c0 -41.333 -4.5 -80.498 -13.5 -117.498s-22.833 -82.5 -41.5 -136.5c-40.667 -112 -61 -185 -61 -219h110v-70h-179v18c0 35.333 4.66699 72.166 14 110.499s30.333 104.166 63 197.499c18 51.333 30.5 92.833 37.5 124.5s10.5 68.5 10.5 110.5
c0 28.667 -10 43 -30 43c-8 0 -14.833 -3.33301 -20.5 -10s-8.5 -15.334 -8.5 -26.001v-108h-59v103c0 30.667 7.66699 56.834 23 78.501s36.333 32.5 63 32.5c61.333 0 92 -43.667 92 -131z" />
    <glyph glyph-name="three" unicode="3" horiz-adv-x="214" 
d="M190 99c0 -30.667 -8.16699 -56.168 -24.5 -76.501s-37.5 -30.5 -63.5 -30.5c-26.667 0 -47.5 9.83301 -62.5 29.5s-22.5 44.834 -22.5 75.501v91h59v-94c0 -19.333 8 -29 24 -29c17.333 0 26 9 26 27v194c0 12 -5.66699 18 -17 18h-36v63h36c11.333 0 17 6.33301 17 19
v186c0 19.333 -8.66699 29 -26 29c-16 0 -24 -10 -24 -30v-94h-59v91c0 31.333 7.16699 56.833 21.5 76.5s35.5 29.5 63.5 29.5c26 0 47.167 -10.167 63.5 -30.5s24.5 -45.833 24.5 -76.5v-170c0 -26.667 -12.667 -47 -38 -61c25.333 -14 38 -34.333 38 -61v-176z" />
    <glyph glyph-name="four" unicode="4" horiz-adv-x="205" 
d="M197 131h-27v-131h-62v131h-102v57l111 478h53v-472h27v-63zM108 194v223l-44 -223h44z" />
    <glyph glyph-name="five" unicode="5" horiz-adv-x="213" 
d="M201 666c0 -28.667 -3.50195 -47.665 -10.502 -56.998s-17.833 -14 -32.5 -14h-66l-7 -195c12 16 30 24 54 24c16.667 0 30.334 -7 41.001 -21s16 -31.667 16 -53v-251c0 -31.333 -8.33301 -57 -25 -77s-38.667 -30 -66 -30c-26 0 -46 10.167 -60 30.5
s-21 45.166 -21 74.499v87h58v-89c0 -8.66699 2.33301 -15.834 7 -21.501s10.334 -8.5 17.001 -8.5c7.33301 0 13.5 2.66699 18.5 8s7.5 12.333 7.5 21v246c0 18 -7.66699 27 -23 27c-7.33301 0 -13.333 -3.16699 -18 -9.5s-7 -14.5 -7 -24.5l-62 6l11 327h168z" />
    <glyph glyph-name="six" unicode="6" horiz-adv-x="227" 
d="M205 102c0 -32 -8.33398 -58.333 -25.001 -79s-38.667 -31 -66 -31c-26.667 0 -48.167 10.333 -64.5 31s-24.5 47 -24.5 79v461c0 32 8.33301 58.5 25 79.5s38.334 31.5 65.001 31.5c26 0 46.667 -10.333 62 -31s23 -45.667 23 -75v-95h-57v98c0 20 -9 30 -27 30
s-27 -9.66699 -27 -29v-194c12.667 16 31 24 55 24c18.667 0 33.5 -6.83301 44.5 -20.5s16.5 -31.167 16.5 -52.5v-227zM140.999 92v222.999c0 7.33301 -2.5 13.333 -7.5 18s-11.5 7 -19.5 7c-7.33301 0 -13.333 -2.33301 -18 -7s-7 -10.667 -7 -18v-223
c0 -7.33301 2.33301 -13.666 7 -18.999s10.667 -8 18 -8c8 0 14.5 2.5 19.5 7.5s7.5 11.5 7.5 19.5z" />
    <glyph glyph-name="seven" unicode="7" horiz-adv-x="201" 
d="M194 632c-30.667 -133.333 -53.333 -246.332 -68 -338.999s-24.667 -190.334 -30 -293.001h-71c16 176.667 50.667 374.667 104 594h-114v72h179v-34z" />
    <glyph glyph-name="eight" unicode="8" horiz-adv-x="231" 
d="M206 99c0 -31.333 -8.33301 -57 -25 -77s-38.334 -30 -65.001 -30c-27.333 0 -49.333 10 -66 30s-25 45.667 -25 77v164c0 32.667 11 56.667 33 72c-22 15.333 -33 39.333 -33 72v160c0 30.667 8.33301 56.167 25 76.5s38.667 30.5 66 30.5
c26.667 0 48.334 -10.167 65.001 -30.5s25 -45.833 25 -76.5v-160c0 -32.667 -11 -56.667 -33 -72c22 -15.333 33 -39.333 33 -72v-164zM143 389v183c0 8.66699 -2.5 15.667 -7.5 21s-11.5 8 -19.5 8s-14.5 -2.66699 -19.5 -8s-7.5 -12.333 -7.5 -21v-183
c0 -7.33301 2.5 -13.5 7.5 -18.5s11.5 -7.5 19.5 -7.5s14.5 2.5 19.5 7.5s7.5 11.167 7.5 18.5zM143 94v188c0 7.33301 -2.5 13.5 -7.5 18.5s-11.5 7.5 -19.5 7.5s-14.5 -2.5 -19.5 -7.5s-7.5 -11.167 -7.5 -18.5v-188c0 -8.66699 2.5 -15.667 7.5 -21s11.5 -8 19.5 -8
s14.5 2.66699 19.5 8s7.5 12.333 7.5 21z" />
    <glyph glyph-name="nine" unicode="9" horiz-adv-x="230" 
d="M205 102c0 -32 -8.5 -58.334 -25.5 -79.001s-39.167 -31 -66.5 -31c-26 0 -47.167 10.333 -63.5 31s-24.5 45.334 -24.5 74.001v92h58v-93c0 -9.33301 2.66699 -16.833 8 -22.5s12.333 -8.5 21 -8.5c19.333 0 29 9.66699 29 29v191c-14 -16 -32.667 -24 -56 -24
c-18 0 -32.5 7 -43.5 21s-16.5 31.667 -16.5 53v228c0 32 8.16699 58.5 24.5 79.5s38.166 31.5 65.499 31.5c26.667 0 48.334 -10.5 65.001 -31.5s25 -47.5 25 -79.5v-461zM141 346.999v227c0 8 -2.33301 14.5 -7 19.5s-11 7.5 -19 7.5s-14.333 -2.5 -19 -7.5
s-7 -11.5 -7 -19.5v-227c0 -7.33301 2.33301 -13.333 7 -18s11 -7 19 -7s14.333 2.33301 19 7s7 10.667 7 18z" />
    <glyph glyph-name="colon" unicode=":" horiz-adv-x="92" 
d="M74 321h-56v100h56v-100zM74 0h-56v100h56v-100z" />
    <glyph glyph-name="semicolon" unicode=";" horiz-adv-x="92" 
d="M74 321h-56v100h56v-100zM74 9c0 -23.333 -4.83301 -42.167 -14.5 -56.5s-23.5 -21.5 -41.5 -21.5v20c17.333 0 26 16.333 26 49h-26v100h56v-91z" />
    <glyph glyph-name="less" unicode="&#x3c;" horiz-adv-x="341" 
d="M277 175l-226 150v17l226 149v-64l-142 -93l142 -95v-64z" />
    <glyph glyph-name="equal" unicode="=" horiz-adv-x="193" 
d="M182 363h-171v56h171v-56zM182 255h-171v56h171v-56z" />
    <glyph glyph-name="greater" unicode="&#x3e;" horiz-adv-x="341" 
d="M290 325l-226 -149v64l142 93l-142 95v64l226 -150v-17z" />
    <glyph glyph-name="question" unicode="?" horiz-adv-x="193" 
d="M183 540c0 -66.667 -17 -141.668 -51 -225.001c-18.667 -48 -28 -96.667 -28 -146h-47c0 50.667 14.667 127 44 229c13.333 47.333 20 93 20 137c0 24.667 -2.16699 41.834 -6.5 51.501s-11.5 14.5 -21.5 14.5c-18.667 0 -28 -13.333 -28 -40v-92h-56v95
c0 33.333 7.33301 60 22 80s35.667 30 63 30c59.333 0 89 -44.667 89 -134zM108 -0.000976562h-54v96h54v-96z" />
    <glyph glyph-name="at" unicode="@" horiz-adv-x="326" 
d="M314 276c0 -45.333 -8.00098 -83.499 -24.001 -114.499s-37.667 -46.5 -65 -46.5c-30 0 -44 18.333 -42 55c-4.66699 -14 -11.5 -25.5 -20.5 -34.5s-18.167 -13.5 -27.5 -13.5c-14 0 -25.333 6.83301 -34 20.5s-13 33.5 -13 59.5c0 37.333 8 71.166 24 101.499
s35 45.5 57 45.5c18 0 27.333 -10.667 28 -32l7 30h40l-29 -141c-8 -40 -2.66699 -60 16 -60c15.333 0 27.333 12.167 36 36.5s13 56.5 13 96.5c0 53.333 -10.333 95.833 -31 127.5s-46.667 47.5 -78 47.5c-34 0 -63 -21.333 -87 -64s-36 -95.667 -36 -159
s11.833 -113.5 35.5 -150.5s52.834 -55.5 87.501 -55.5c35.333 0 62.333 11.667 81 35l17 -22c-22 -30 -54.667 -45 -98 -45c-44.667 0 -82 20.5 -112 61.5s-45 99.833 -45 176.5c0 75.333 15.5 136.833 46.5 184.5s67.833 71.5 110.5 71.5c45.333 0 80.5 -21 105.5 -63
s37.5 -91.333 37.5 -148zM189.999 284.001c-0.666992 20.667 -5.66797 31 -15.001 31c-11.333 0 -22 -12 -32 -36s-15 -48.667 -15 -74c0 -28.667 6.66699 -43 20 -43c12.667 0 22.334 17 29.001 51z" />
    <glyph glyph-name="A" unicode="A" horiz-adv-x="217" 
d="M212 0h-72l-7 128h-56l-11 -128h-62l67 666h75zM128 200l-19 301l-26 -301h45z" />
    <glyph glyph-name="B" unicode="B" horiz-adv-x="234" 
d="M215 105c0 -38.667 -8.66699 -65.833 -26 -81.5s-38 -23.5 -62 -23.5h-101v666h101c24 0 44.667 -7.83301 62 -23.5s26 -42.834 26 -81.501v-146c0 -36 -13 -61.333 -39 -76c26 -15.333 39 -40.666 39 -75.999v-158zM147 405.001v158c0 21.333 -7.33301 32 -22 32h-29
v-225h26c16.667 0 25 11.667 25 35zM147 103.001v168c0 23.333 -8.33301 35 -25 35h-26v-236h29c14.667 0 22 11 22 33z" />
    <glyph glyph-name="C" unicode="C" horiz-adv-x="226" 
d="M210 106c0 -34 -8.16699 -61.5 -24.5 -82.5s-38.5 -31.5 -66.5 -31.5c-27.333 0 -50.666 10.667 -69.999 32s-29 48.666 -29 81.999v454c0 32.667 9.66699 59.834 29 81.501s42.666 32.5 69.999 32.5c28 0 50.167 -10.5 66.5 -31.5s24.5 -48.5 24.5 -82.5v-127h-59v134
c0 22.667 -10 34 -30 34c-20.667 0 -31 -11.333 -31 -34v-468c0 -22.667 10.333 -34 31 -34c20 0 30 11.333 30 34v135h59v-128z" />
    <glyph glyph-name="D" unicode="D" horiz-adv-x="241" 
d="M220 118c0 -78.667 -30.333 -118 -91 -118h-103v666h103c60.667 0 91 -39.333 91 -118v-430zM151 112v441c0 28 -8.66699 42 -26 42h-29v-525h29c17.333 0 26 14 26 42z" />
    <glyph glyph-name="E" unicode="E" 
d="M187 0h-161v666h161v-69h-92v-220h65v-69h-65v-239h92v-69z" />
    <glyph glyph-name="F" unicode="F" horiz-adv-x="192" 
d="M181 597h-86v-223h69v-68h-69v-306h-69v666h155v-69z" />
    <glyph glyph-name="G" unicode="G" horiz-adv-x="234" 
d="M217 0l-35.998 -0.000976562l-13 29c-10.667 -24.667 -31 -37 -61 -37c-24.667 0 -45.334 9.83301 -62.001 29.5s-25 47.834 -25 84.501v454c0 33.333 9.5 60.666 28.5 81.999s42.167 32 69.5 32s49.666 -10.667 66.999 -32s26 -48.666 26 -81.999v-126h-62v135
c0 9.33301 -2.83301 17 -8.5 23s-13.167 9 -22.5 9c-8.66699 0 -15.667 -3 -21 -9s-8 -13.667 -8 -23v-476c0 -23.333 9.66699 -35 29 -35c20 0 30 11.667 30 35v169h-26v63h95v-325z" />
    <glyph glyph-name="H" unicode="H" horiz-adv-x="248" 
d="M222 0h-69v293h-57v-293h-70v666h70v-302h57v302h69v-666z" />
    <glyph glyph-name="I" unicode="I" horiz-adv-x="122" 
d="M96 0h-70v666h70v-666z" />
    <glyph glyph-name="J" unicode="J" horiz-adv-x="219" 
d="M197 99c0 -32 -8.5 -57.833 -25.5 -77.5s-39.167 -29.5 -66.5 -29.5s-49.833 9.83301 -67.5 29.5s-26.5 45.5 -26.5 77.5v166h65v-169c0 -20.667 8.66699 -31 26 -31s26 10.333 26 31v570h69v-567z" />
    <glyph glyph-name="K" unicode="K" horiz-adv-x="230" 
d="M224 0h-69l-37 282l-23 -110v-172h-69v666h69v-328l62 328h65l-59 -286z" />
    <glyph glyph-name="L" unicode="L" horiz-adv-x="191" 
d="M183 0h-157v666h69v-597h88v-69z" />
    <glyph glyph-name="M" unicode="M" horiz-adv-x="334" 
d="M308 0h-66v517l-9 -128l-43 -389h-54l-41 389l-9 128v-517h-60v666h95l36 -336l12 -139l12 139l35 336h92v-666z" />
    <glyph glyph-name="N" unicode="N" horiz-adv-x="258" 
d="M234 0h-55l-77 336l-17 96v-432h-61v666h70l64 -336l15 -97v433h61v-666z" />
    <glyph glyph-name="O" unicode="O" horiz-adv-x="241" 
d="M219 106c0 -33.333 -9.66699 -60.666 -29 -81.999s-42.666 -32 -69.999 -32s-50.666 10.667 -69.999 32s-29 48.666 -29 81.999v454c0 32.667 9.66699 59.834 29 81.501s42.666 32.5 69.999 32.5s50.666 -10.833 69.999 -32.5s29 -48.834 29 -81.501v-454zM149 97v472
c0 9.33301 -2.66699 17 -8 23s-12.333 9 -21 9c-19.333 0 -29 -10.667 -29 -32v-472c0 -21.333 9.66699 -32 29 -32s29 10.667 29 32z" />
    <glyph glyph-name="P" unicode="P" horiz-adv-x="228" 
d="M215 383c0 -38.667 -8.83301 -65.832 -26.5 -81.499s-38.5 -23.5 -62.5 -23.5h-31v-278h-69v666h100c24 0 44.833 -7.83301 62.5 -23.5s26.5 -42.834 26.5 -81.501v-178zM146 376.002v187c0 21.333 -7 32 -21 32h-30v-251h30c14 0 21 10.667 21 32z" />
    <glyph glyph-name="Q" unicode="Q" horiz-adv-x="241" 
d="M242 0c-8.66699 -5.33301 -19.332 -7.99902 -31.999 -7.99902c-15.333 0 -27.333 5.33301 -36 16c-15.333 -10.667 -33.333 -16 -54 -16c-27.333 0 -50.666 10.667 -69.999 32s-29 48.666 -29 81.999v454c0 32.667 9.66699 59.834 29 81.501s42.666 32.5 69.999 32.5
s50.666 -10.833 69.999 -32.5s29 -48.834 29 -81.501v-454c0 -19.333 -3.33301 -36.333 -10 -51c5.33301 -6.66699 16.333 -10 33 -10v-45zM149.002 125.001v444c0 9.33301 -2.66699 17 -8 23s-12.333 9 -21 9c-19.333 0 -29 -10.667 -29 -32v-472
c0 -21.333 9.66699 -32 29 -32c8 0 14 2 18 6l-20 19z" />
    <glyph glyph-name="R" unicode="R" horiz-adv-x="238" 
d="M228 -2l-45 0.000976562c-10.667 0 -19 8 -25 24s-9 35.333 -9 58v176c0 22.667 -8.66699 34 -26 34h-27v-290h-70v666h101c24 0 44.667 -7.83301 62 -23.5s26 -42.834 26 -81.501v-163c0 -34.667 -13 -60 -39 -76c27.333 -16.667 41 -42 41 -76v-161
c0 -30 3.66699 -52.667 11 -68v-19zM146 393.001v170c0 21.333 -7 32 -21 32h-29v-237h26c16 0 24 11.667 24 35z" />
    <glyph glyph-name="S" unicode="S" horiz-adv-x="225" 
d="M211 120c0 -46.667 -10.001 -79.6719 -30.001 -99.0049s-43 -29 -69 -29c-31.333 0 -55.666 10.5 -72.999 31.5s-26 49.833 -26 86.5v85h63v-93c0 -30.667 11 -46 33 -46c23.333 0 35 15.333 35 46c0 54.667 -18 121.667 -54 201
c-49.333 106.667 -74 186.334 -74 239.001c0 40.667 8.5 72.834 25.5 96.501s42.5 35.5 76.5 35.5c28 0 50 -10.333 66 -31s24 -49.667 24 -87v-93h-62v98c0 29.333 -9.33301 44 -28 44c-22.667 0 -34 -13.667 -34 -41c0 -35.333 3.5 -65.166 10.5 -89.499
s20.167 -58.166 39.5 -101.499c3.33301 -8 6 -14 8 -18c46 -103.333 69 -181.666 69 -234.999z" />
    <glyph glyph-name="T" unicode="T" horiz-adv-x="202" 
d="M196 594h-59v-594h-69v594h-62v72h190v-72z" />
    <glyph glyph-name="U" unicode="U" horiz-adv-x="238" 
d="M215 106c0 -33.333 -9.16895 -60.666 -27.502 -81.999s-41.166 -32 -68.499 -32s-50.166 10.667 -68.499 32s-27.5 48.666 -27.5 81.999v560h69v-566c0 -23.333 9.33301 -35 28 -35c19.333 0 29 11.667 29 35v566h66v-560z" />
    <glyph glyph-name="V" unicode="V" horiz-adv-x="219" 
d="M214 666l-70 -666h-71l-68 666h71l33 -478l41 478h64z" />
    <glyph glyph-name="W" unicode="W" horiz-adv-x="323" 
d="M321 666l-71 -666h-60l-32 403l-40 -403h-59l-55 666h68l25 -453l41 453h54l32 -453l34 453h63z" />
    <glyph glyph-name="X" unicode="X" horiz-adv-x="221" 
d="M215 0h-68l-39 235l-41 -235h-66l68 328l-63 338h69l36 -250l42 250h64l-65 -321z" />
    <glyph glyph-name="Y" unicode="Y" horiz-adv-x="216" 
d="M216 666l-78 -405v-261h-69v261l-70 405h67l42 -294l42 294h66z" />
    <glyph glyph-name="Z" unicode="Z" horiz-adv-x="191" 
d="M184 631l-110 -562h103v-69h-173v35l110 559h-104v72h174v-35z" />
    <glyph glyph-name="bracketleft" unicode="[" horiz-adv-x="162" 
d="M178 -99h-124v818h124v-43h-74v-732h74v-43z" />
    <glyph glyph-name="backslash" unicode="\" horiz-adv-x="186" 
d="M199 -64h-40l-173 793h40z" />
    <glyph glyph-name="bracketright" unicode="]" horiz-adv-x="162" 
d="M113 -99h-124v43h74v732h-74v43h124v-818z" />
    <glyph glyph-name="asciicircum" unicode="^" horiz-adv-x="169" 
d="M164 558c-9.33301 -4 -18.667 -6 -28 -6c-30 0 -48 20 -54 60c-6.66699 -40 -24.667 -60 -54 -60c-8 0 -16.333 2 -25 6v20c11.333 0 23.5 7.83301 36.5 23.5s22.167 37.167 27.5 64.5h33c5.33301 -27.333 14.5 -48.833 27.5 -64.5s25.167 -23.5 36.5 -23.5v-20z" />
    <glyph glyph-name="underscore" unicode="_" horiz-adv-x="222" 
d="M222 -59h-222v59h222v-59z" />
    <glyph glyph-name="grave" unicode="`" horiz-adv-x="104" 
d="M94 524h-35l-51 122h55z" />
    <glyph glyph-name="a" unicode="a" horiz-adv-x="186" 
d="M173 -8l-13 -0.00195312c-16.667 0 -29.667 11.667 -39 35c-8.66699 -23.333 -23.667 -35 -45 -35c-20 0 -35.5 9.33301 -46.5 28s-16.5 44.334 -16.5 77.001v40c0 58.667 31.667 114.667 95 168v83c0 21.333 -6 32 -18 32s-18 -10.667 -18 -32v-57h-51v54
c0 30 6.66699 54.333 20 73s30.666 28 51.999 28c20.667 0 37.334 -9.16699 50.001 -27.5s19 -42.833 19 -73.5v-320c0 -13.333 3.66699 -20.666 11 -21.999v-51zM108 94.998v138c-26.667 -23.333 -40 -52 -40 -86v-57c0 -23.333 6.33301 -35 19 -35c14 0 21 13.333 21 40z
" />
    <glyph glyph-name="b" unicode="b" horiz-adv-x="198" 
d="M178 69c0 -22.667 -5 -41.166 -15 -55.499s-22.667 -21.5 -38 -21.5c-21.333 0 -36.333 13 -45 39l-3 -31h-54v666h57v-219c8.66699 26 23.667 39 45 39c15.333 0 28 -7.33301 38 -22s15 -33.334 15 -56.001v-339zM121 84.001v309c0 19.333 -7 29 -21 29
c-13.333 0 -20 -9.66699 -20 -29v-309c0 -19.333 6.66699 -29 20 -29c14 0 21 9.66699 21 29z" />
    <glyph glyph-name="c" unicode="c" horiz-adv-x="183" 
d="M168 97c0 -32 -6.5 -57.502 -19.5 -76.502s-30.5 -28.5 -52.5 -28.5c-21.333 0 -39.333 9.83301 -54 29.5s-22 44.834 -22 75.501v284c0 30.667 7.33301 55.834 22 75.501s32.667 29.5 54 29.5c22 0 39.5 -9.66699 52.5 -29s19.5 -44.666 19.5 -75.999v-75h-47v84
c0 20 -7.33301 30 -22 30c-6 0 -11.167 -2.83301 -15.5 -8.5s-6.5 -12.834 -6.5 -21.501v-303c0 -8.66699 2.16699 -15.667 6.5 -21s9.5 -8 15.5 -8c14.667 0 22 9.66699 22 29v83h47v-73z" />
    <glyph glyph-name="d" unicode="d" horiz-adv-x="198" 
d="M174 0l-50 0.000976562l-6 31c-8.66699 -26 -23.667 -39 -45 -39c-16 0 -28.833 7.16699 -38.5 21.5s-14.5 32.833 -14.5 55.5v339c0 23.333 4.83301 42.166 14.5 56.499s22.5 21.5 38.5 21.5c20 0 35 -11.333 45 -34v214h56v-666zM118 84.001v309
c0 19.333 -6.66699 29 -20 29c-14 0 -21 -9.66699 -21 -29v-309c0 -19.333 7 -29 21 -29c13.333 0 20 9.66699 20 29z" />
    <glyph glyph-name="e" unicode="e" horiz-adv-x="188" 
d="M169 97c0 -31.333 -6.66699 -56.668 -20 -76.001s-30.666 -29 -51.999 -29s-39.5 9.83301 -54.5 29.5s-22.5 44.834 -22.5 75.501v283c0 30.667 7.5 56 22.5 76s33.167 30 54.5 30s38.666 -9.83301 51.999 -29.5s20 -45.167 20 -76.5v-156h-92v-135
c0 -21.333 7.33301 -32 22 -32c13.333 0 20 10.667 20 32v82h50v-74zM119 277.998v109c0 22 -6.66699 33 -20 33c-14.667 0 -22 -11 -22 -33v-109h42z" />
    <glyph glyph-name="f" unicode="f" horiz-adv-x="123" 
d="M119 419h-29v-419h-57v419h-26v61h26v65c0 40.667 6.33301 71 19 91s33.667 30 63 30h7v-61h-8c-17.333 0 -26 -12.667 -26 -38v-87h31v-61z" />
    <glyph glyph-name="g" unicode="g" horiz-adv-x="191" 
d="M196 493c0 -32 -10.001 -48.0039 -30.001 -48.0039c-3.33301 0 -8.33301 1.33301 -15 4c14.667 -19.333 22 -43.666 22 -72.999v-114c0 -31.333 -7.33301 -57.666 -22 -78.999s-32.667 -32 -54 -32c-5.33301 0 -8.66602 0.666992 -9.99902 2
c-5.33301 0 -9.83301 -3.16699 -13.5 -9.5s-5.5 -14.166 -5.5 -23.499c0 -22.667 10 -34 30 -34c25.333 0 45.333 -8.16699 60 -24.5s22 -39.833 22 -70.5v-68c0 -70 -27.667 -105 -83 -105c-24.667 0 -44 8.83301 -58 26.5s-21 43.834 -21 78.501v60
c0 26 8.66699 46.667 26 62c-8 4 -14.833 11.5 -20.5 22.5s-8.5 22.5 -8.5 34.5c0 16 4.16699 30.167 12.5 42.5s18.833 19.5 31.5 21.5c-25.333 10 -38 43.333 -38 100v114c0 31.333 7.16699 56.833 21.5 76.5s32.5 29.5 54.5 29.5c3.33301 0 7.33301 -0.5 12 -1.5
s8 -1.5 10 -1.5c20.667 0 31 13.667 31 41h44c1.33301 -8 2 -18.333 2 -31zM117.999 243.996v148c0 18.667 -7 28 -21 28s-21 -9.33301 -21 -28v-148c0 -18.667 7 -28 21 -28s21 9.33301 21 28zM126.999 -85.0039l0.000976562 75c0 9.33301 -2.33301 17.5 -7 24.5
s-11.334 10.5 -20.001 10.5c-16.667 0 -25 -11.667 -25 -35v-75c0 -9.33301 2.33301 -17.333 7 -24s10.667 -10 18 -10c8 0 14.5 3.33301 19.5 10s7.5 14.667 7.5 24z" />
    <glyph glyph-name="h" unicode="h" 
d="M178 0l-57 -0.000976562v393c0 19.333 -7 29 -21 29c-5.33301 0 -10 -2.66699 -14 -8s-6 -12.333 -6 -21v-393h-57v666h57v-219c10 26 25.333 39 46 39c15.333 0 27.833 -7.16699 37.5 -21.5s14.5 -33.166 14.5 -56.499v-408z" />
    <glyph glyph-name="i" unicode="i" horiz-adv-x="104" 
d="M77 535h-51v78h51v-78zM80 0h-57v480h57v-480z" />
    <glyph glyph-name="j" unicode="j" horiz-adv-x="104" 
d="M77 535h-51v78h51v-78zM80 -55c0 -41.333 -6.33301 -71.833 -19 -91.5s-33.667 -29.5 -63 -29.5h-7v61h7c16.667 0 25 12.667 25 38v557h57v-535z" />
    <glyph glyph-name="k" unicode="k" horiz-adv-x="189" 
d="M184 0h-57l-31 200l-15 -56v-144h-58v666h58v-420l46 235h54l-46 -219z" />
    <glyph glyph-name="l" unicode="l" horiz-adv-x="104" 
d="M80 0h-57v666h57v-666z" />
    <glyph glyph-name="m" unicode="m" horiz-adv-x="292" 
d="M270 0l-56.999 0.00195312v388c0 20 -6.33301 30 -19 30c-12 0 -18 -10 -18 -30v-388h-58v392c0 20 -6 30 -18 30c-5.33301 0 -10 -2.83301 -14 -8.5s-6 -12.834 -6 -21.501v-392h-57v480h55l2 -34c10.667 26.667 26.667 40 48 40c20 0 34.333 -14.333 43 -43
c10 28.667 26 43 48 43c15.333 0 27.666 -6.83301 36.999 -20.5s14 -31.834 14 -54.501v-411z" />
    <glyph glyph-name="n" unicode="n" horiz-adv-x="201" 
d="M178 0l-56 -0.000976562v393c0 8.66699 -2 15.667 -6 21s-9 8 -15 8s-11 -2.66699 -15 -8s-6 -12.333 -6 -21v-393h-57v480h54l3 -34c8.66699 26.667 24 40 46 40c15.333 0 27.833 -7.16699 37.5 -21.5s14.5 -33.166 14.5 -56.499v-408z" />
    <glyph glyph-name="o" unicode="o" horiz-adv-x="196" 
d="M175 97c0 -30.667 -7.33301 -55.834 -22 -75.501s-33 -29.5 -55 -29.5s-40.5 9.83301 -55.5 29.5s-22.5 44.834 -22.5 75.501v283c0 30.667 7.5 56 22.5 76s33.5 30 55.5 30s40.333 -9.83301 55 -29.5s22 -45.167 22 -76.5v-283zM119 85v306c0 19.333 -7 29 -21 29
c-13.333 0 -20 -9.66699 -20 -29v-306c0 -18 6.66699 -27 20 -27c14 0 21 9 21 27z" />
    <glyph glyph-name="p" unicode="p" horiz-adv-x="198" 
d="M178 71c0 -22.667 -4.83301 -41.167 -14.5 -55.5s-22.167 -21.5 -37.5 -21.5c-20.667 0 -36 11.333 -46 34v-201h-57v653h52l5 -32c10 26.667 25.333 40 46 40c15.333 0 27.833 -7.16699 37.5 -21.5s14.5 -32.833 14.5 -55.5v-340zM121 86v310
c0 19.333 -6.66699 29 -20 29c-6 0 -11 -2.66699 -15 -8s-6 -12.333 -6 -21v-310c0 -8 2 -14.667 6 -20s9 -8 15 -8c13.333 0 20 9.33301 20 28z" />
    <glyph glyph-name="q" unicode="q" horiz-adv-x="198" 
d="M174 -176l-56 -0.000976562v205c-8 -24.667 -23 -37 -45 -37c-15.333 0 -28 7 -38 21s-15 32.333 -15 55v340c0 22.667 5 41.334 15 56.001s22.667 22 38 22c20.667 0 35.667 -13.667 45 -41l3 32h53v-653zM118 83.999v309c0 19.333 -6.66699 29 -20 29
c-14 0 -21 -9.66699 -21 -29v-309c0 -19.333 7 -29 21 -29c13.333 0 20 9.66699 20 29z" />
    <glyph glyph-name="r" unicode="r" horiz-adv-x="145" 
d="M139 408c-21.333 0 -36.5 -3.66699 -45.5 -11s-13.5 -20.333 -13.5 -39v-358h-57v480h54l4 -42c10.667 32 30 48 58 48v-78z" />
    <glyph glyph-name="s" unicode="s" horiz-adv-x="177" 
d="M166 107c0 -35.333 -6.83203 -63.334 -20.499 -84.001s-31.834 -31 -54.501 -31c-51.333 0 -77 36.667 -77 110v42h51v-56c0 -22.667 7.33301 -34 22 -34c17.333 0 26 12 26 36c0 24.667 -2.16699 44.334 -6.5 59.001s-15.833 38.334 -34.5 71.001
c-12 20 -21.167 35.833 -27.5 47.5s-13 27.667 -20 48s-10.5 39.5 -10.5 57.5c0 34.667 7 62.167 21 82.5s32 30.5 54 30.5c25.333 0 44.166 -9.83301 56.499 -29.5s18.5 -46.167 18.5 -79.5v-50h-49v61c0 21.333 -8 32 -24 32c-7.33301 0 -13.166 -3.33301 -17.499 -10
s-6.5 -14.667 -6.5 -24c0 -20 3.33301 -38.5 10 -55.5s18.667 -39.833 36 -68.5c12 -21.333 21 -37.833 27 -49.5s11.833 -27.334 17.5 -47.001s8.5 -39.167 8.5 -58.5z" />
    <glyph glyph-name="t" unicode="t" horiz-adv-x="123" 
d="M117 419h-28v-295c0 -54 2 -95.333 6 -124h-51c-8.66699 34.667 -13 76 -13 124v295h-25v61h30v70l53 22v-92h28v-61z" />
    <glyph glyph-name="u" unicode="u" 
d="M177 0h-54l-3 31c-8.66699 -26 -24 -39 -46 -39c-15.333 0 -27.833 7.16699 -37.5 21.5s-14.5 32.833 -14.5 55.5v411h56v-396c0 -8.66699 2.16699 -15.667 6.5 -21s9.5 -8 15.5 -8c13.333 0 20 9.66699 20 29v396h57v-480z" />
    <glyph glyph-name="v" unicode="v" horiz-adv-x="174" 
d="M165 480l-51 -480h-54l-52 480h56l19 -238l6 -99l6 99l17 238h53z" />
    <glyph glyph-name="w" unicode="w" horiz-adv-x="272" 
d="M264 480l-51 -480h-53l-17 181l-8 113l-8 -113l-17 -181h-53l-49 480h57l16 -229l8 -117l7 117l18 229h47l18 -229l8 -117l8 117l16 229h53z" />
    <glyph glyph-name="x" unicode="x" horiz-adv-x="174" 
d="M169 0h-59l-25 162l-26 -162h-56l51 236l-51 244h57l26 -166l26 166h57l-52 -235z" />
    <glyph glyph-name="y" unicode="y" horiz-adv-x="172" 
d="M163 480l-59 -535c-5.33301 -46.667 -13.333 -78.5 -24 -95.5s-31 -25.5 -61 -25.5h-5v61h9c14 0 22.667 12.667 26 38l9 82l-51 475h56l17 -235l6 -100l6 100l17 235h54z" />
    <glyph glyph-name="z" unicode="z" horiz-adv-x="158" 
d="M147 457l-78 -392h73v-65h-135v23l79 393h-72v64h133v-23z" />
    <glyph glyph-name="braceleft" unicode="{" horiz-adv-x="194" 
d="M175 -99l-20 -0.00195312c-34.667 0 -61.334 12 -80.001 36s-28 54.333 -28 91c0 36 9.83301 81.333 29.5 136s29.5 85.667 29.5 93c0 24 -13.667 36 -41 36h-30v34h30c27.333 0 41 12 41 36c0 7.33301 -9.83301 38.333 -29.5 93s-29.5 100 -29.5 136
c0 36.667 9.33301 67 28 91s45.334 36 80.001 36h20v-31h-21c-18 0 -32 -9.16699 -42 -27.5s-15 -41.833 -15 -70.5c0 -25.333 8.83301 -62.666 26.5 -111.999s26.5 -81.333 26.5 -96c0 -37.333 -18.333 -61.333 -55 -72c36.667 -11.333 55 -35.333 55 -72
c0 -14.667 -8.83301 -46.667 -26.5 -96s-26.5 -86.666 -26.5 -111.999c0 -28.667 5 -52.167 15 -70.5s24 -27.5 42 -27.5h21v-31z" />
    <glyph glyph-name="bar" unicode="|" horiz-adv-x="91" 
d="M66 -64h-40v793h40v-793z" />
    <glyph glyph-name="braceright" unicode="}" horiz-adv-x="194" 
d="M160 293l-31 0.00195312c-26.667 0 -40 -12 -40 -36c0 -7.33301 9.83301 -38.333 29.5 -93s29.5 -100 29.5 -136c0 -36.667 -9.5 -67 -28.5 -91s-45.833 -36 -80.5 -36h-19v31h21c18 0 32 9.16699 42 27.5s15 41.833 15 70.5c0 25.333 -8.83301 62.666 -26.5 111.999
s-26.5 81.333 -26.5 96c0 36.667 18.333 60.667 55 72c-36.667 10.667 -55 34.667 -55 72c0 14.667 8.83301 46.667 26.5 96s26.5 86.666 26.5 111.999c0 28.667 -5 52.167 -15 70.5s-24 27.5 -42 27.5h-21v31h19c34.667 0 61.5 -12 80.5 -36s28.5 -54.333 28.5 -91
c0 -36 -9.83301 -81.333 -29.5 -136s-29.5 -85.667 -29.5 -93c0 -24 13.333 -36 40 -36h31v-34z" />
    <glyph glyph-name="asciitilde" unicode="~" horiz-adv-x="159" 
d="M154 348c0 -42 -13.666 -63 -40.999 -63c-8.66699 0 -20.334 6.5 -35.001 19.5s-24 19.5 -28 19.5c-8 0 -12 -5 -12 -15v-23h-26c-4.66699 9.33301 -7 19.333 -7 30c0 42 13.333 63 40 63c9.33301 0 21.5 -6.33301 36.5 -19s24.167 -19 27.5 -19c8 0 12 4.66699 12 14v24
h26c4.66699 -8.66699 7 -19 7 -31z" />
    <glyph glyph-name="nbspace" unicode="&#xa0;" horiz-adv-x="46" 
 />
    <glyph glyph-name="exclamdown" unicode="&#xa1;" horiz-adv-x="113" 
d="M83 384h-54v96h54v-96zM87 -186h-61v289l21 219h19l21 -219v-289z" />
    <glyph glyph-name="cent" unicode="&#xa2;" horiz-adv-x="196" 
d="M77 577v88.999h47v-89c32.667 -12.667 49 -46.334 49 -101.001v-75h-47v84c0 20.667 -7.33301 31 -22 31c-6 0 -11 -2.83301 -15 -8.5s-6 -13.167 -6 -22.5v-302c0 -9.33301 2 -16.666 6 -21.999s9 -8 15 -8c14.667 0 22 10 22 30v83h47v-73
c0 -54.667 -16.333 -88.334 -49 -101.001v-92h-47v92c-34.667 14.667 -52 48.334 -52 101.001v283c0 24.667 4.66699 45.834 14 63.501s22 30.167 38 37.5z" />
    <glyph glyph-name="sterling" unicode="&#xa3;" horiz-adv-x="277" 
d="M258 104c0 -74.667 -24.667 -111.999 -74 -111.999c-14 0 -28.167 3.83301 -42.5 11.5s-25.5 17.167 -33.5 28.5c-12.667 -26.667 -30.667 -40 -54 -40c-18.667 0 -34.167 6 -46.5 18s-18.5 28 -18.5 48c0 19.333 6.16699 35.333 18.5 48s28.833 19 49.5 19
c10.667 0 23 -4 37 -12c12 31.333 18 76.333 18 135c0 18.667 -1.66699 37 -5 55h-66v63h53c-17.333 59.333 -26 112.333 -26 159c0 44.667 7.83301 80.667 23.5 108s38.834 41 69.501 41c27.333 0 48.166 -11.333 62.499 -34s21.5 -52 21.5 -88v-80h-58v85
c0 25.333 -8.66699 38 -26 38c-16.667 0 -25 -14.333 -25 -43c0 -45.333 8.33301 -107.333 25 -186h68v-63h-58c0.666992 -6 1 -16.333 1 -31c0 -68.667 -12.333 -130.334 -37 -185.001c16.667 -15.333 31.667 -23 45 -23c16.667 0 25 11 25 33v98h53v-91zM76 65.001
c-7.33301 9.33301 -16 14 -26 14c-12.667 0 -19 -6.33301 -19 -19s6.33301 -19 19 -19c15.333 0 24 8 26 24z" />
    <glyph glyph-name="currency" unicode="&#xa4;" horiz-adv-x="218" 
d="M81 365l89 -0.00195312v-62h-89v-201c0 -24.667 10.333 -37 31 -37s31 12.333 31 37v108h56v-104c0 -35.333 -8 -63.166 -24 -83.499s-38 -30.5 -66 -30.5c-26.667 0 -48.167 10.333 -64.5 31s-24.5 48 -24.5 82v456c0 34 8.33301 61.333 25 82s38 31 64 31
c28 0 50 -10.167 66 -30.5s24 -48.166 24 -83.499v-104h-56v108c0 24.667 -10.333 37 -31 37s-31 -12.333 -31 -37v-199z" />
    <glyph glyph-name="yen" unicode="&#xa5;" horiz-adv-x="221" 
d="M140 276v-57h59v-61h-59v-158h-66v158h-59v61h59v57h-59v60h49l-56 330h66l37 -279l38 279h64c-41.333 -220 -62.333 -330 -63 -330h49v-60h-59z" />
    <glyph glyph-name="section" unicode="&#xa7;" horiz-adv-x="234" 
d="M225 253c0 -68 -21.999 -122.003 -65.999 -162.003c22.667 -31.333 38.167 -57.166 46.5 -77.499s12.5 -44.166 12.5 -71.499c0 -34.667 -8.33301 -64 -25 -88s-41 -36 -73 -36c-33.333 0 -59.5 10.833 -78.5 32.5s-28.5 52.5 -28.5 92.5v41h62v-52
c0 -31.333 13.333 -47 40 -47c12.667 0 22.5 4.83301 29.5 14.5s10.5 22.5 10.5 38.5c0 22.667 -7.5 46.5 -22.5 71.5s-31.5 47.5 -49.5 67.5s-34.5 45.333 -49.5 76s-22.5 62 -22.5 94c0 62.667 22.333 115.667 67 159c-21.333 29.333 -36.5 54 -45.5 74
s-13.5 43.333 -13.5 70c0 36.667 8.66699 66.5 26 89.5s42.666 34.5 75.999 34.5c31.333 0 55.333 -11.667 72 -35s25 -52.666 25 -87.999v-46h-62v53c0 30 -11.333 45 -34 45c-24.667 0 -37 -15.333 -37 -46c0 -22 7.33301 -45.333 22 -70s30.667 -47 48 -67
s33.333 -45 48 -75s22 -60.667 22 -92zM161.001 232.997c0 48 -15.667 90.333 -47 127c-25.333 -26.667 -38 -59 -38 -97c0 -46.667 16 -88.667 48 -126c24.667 26 37 58 37 96z" />
    <glyph glyph-name="dieresis" unicode="&#xa8;" horiz-adv-x="133" 
d="M125 537h-45v84h45v-84zM52 537h-44v84h44v-84z" />
    <glyph glyph-name="copyright" unicode="&#xa9;" horiz-adv-x="474" 
d="M460 305c0 -62.667 -21.333 -116.167 -64 -160.5s-95.667 -66.5 -159 -66.5s-116.333 22 -159 66s-64 97.667 -64 161s21.333 117.166 64 161.499s95.667 66.5 159 66.5s116.333 -22.167 159 -66.5s64 -98.166 64 -161.499zM425 305
c0 54.667 -17.667 100.834 -53 138.501s-80.333 56.5 -135 56.5s-99.667 -18.833 -135 -56.5s-53 -83.834 -53 -138.501s17.667 -100.667 53 -138s80.333 -56 135 -56s99.667 18.667 135 56s53 83.333 53 138zM311 253c0 -18 -6.83301 -33.167 -20.5 -45.5
s-31.167 -18.5 -52.5 -18.5s-39.166 6.16699 -53.499 18.5s-21.5 27.5 -21.5 45.5v104c0 18.667 7.16699 34 21.5 46s32.166 18 53.499 18s38.833 -6 52.5 -18s20.5 -27.333 20.5 -46v-15h-34v15c0 9.33301 -3.33301 17.333 -10 24s-16 10 -28 10
s-21.167 -3.33301 -27.5 -10s-9.5 -14.667 -9.5 -24v-104c0 -9.33301 3.16699 -17.166 9.5 -23.499s15.5 -9.5 27.5 -9.5s21.333 3.16699 28 9.5s10 14.166 10 23.499v16h34v-16z" />
    <glyph glyph-name="ordfeminine" unicode="&#xaa;" horiz-adv-x="189" 
d="M180 306l-15.001 0.000976562c-18.667 0 -31.667 10.667 -39 32c-10.667 -21.333 -27.334 -32 -50.001 -32c-18.667 0 -33.167 7.33301 -43.5 22s-15.5 35 -15.5 61v23c0 28 8.33301 51.5 25 70.5s40.334 36.833 71.001 53.5v58c0 18 -6.33301 27 -19 27s-19 -9 -19 -27
v-37h-50v34c0 24.667 6.33301 44.667 19 60s30.334 23 53.001 23c22 0 39 -7.83301 51 -23.5s18 -36.5 18 -62.5v-221c0 -10.667 4.66699 -16.334 14 -17.001v-44zM112.999 389.001v94c-29.333 -14 -44 -35 -44 -63v-34c0 -19.333 7 -29 21 -29c6.66699 0 12.167 3 16.5 9
s6.5 13.667 6.5 23z" />
    <glyph glyph-name="guillemotleft" unicode="&#xab;" horiz-adv-x="260" 
d="M240 0h-25c-9.33301 79.333 -37.666 135.333 -84.999 168v51c47.333 32.667 75.666 88.667 84.999 168h25c0 -93.333 -18 -158 -54 -194c36 -36 54 -100.333 54 -193zM126 0h-26c-9.33301 80 -37.666 136 -84.999 168v51c47.333 32 75.666 88 84.999 168h26
c0 -93.333 -18 -158 -54 -194c36 -36 54 -100.333 54 -193z" />
    <glyph glyph-name="logicalnot" unicode="&#xac;" horiz-adv-x="270" 
d="M227 280l-39 -39l-54 53l-53 -53l-38 38l53 53l-53 54l39 38l53 -54l53 54l39 -38l-55 -53z" />
    <glyph glyph-name="registered" unicode="&#xae;" horiz-adv-x="474" 
d="M460 305c0 -62.667 -21.333 -116.167 -64 -160.5s-95.667 -66.5 -159 -66.5s-116.333 22 -159 66s-64 97.667 -64 161s21.333 117.166 64 161.499s95.667 66.5 159 66.5s116.333 -22.167 159 -66.5s64 -98.166 64 -161.499zM425 305
c0 54.667 -17.667 100.834 -53 138.501s-80.333 56.5 -135 56.5s-99.667 -18.833 -135 -56.5s-53 -83.834 -53 -138.501s17.667 -100.667 53 -138s80.333 -56 135 -56s99.667 18.667 135 56s53 83.333 53 138zM322 194l-9.99902 0.000976562
c-14.667 0 -24.834 2.5 -30.501 7.5s-8.5 13.833 -8.5 26.5v33c0 20 -9 30 -27 30h-38v-95h-39v221h81c40 0 60 -18.667 60 -56v-13c0 -24.667 -11.333 -39.334 -34 -44.001c23.333 -2.66699 35 -17 35 -43v-30c0 -6 3.66699 -9 11 -9v-28zM271.001 346.001v16
c0 16.667 -8 25 -24 25h-39v-70h36c18 0 27 9.66699 27 29z" />
    <glyph glyph-name="macron" unicode="&#xaf;" horiz-adv-x="134" 
d="M127 554h-120v50h120v-50z" />
    <glyph glyph-name="degree" unicode="&#xb0;" horiz-adv-x="160" 
d="M153 601c0 -19.333 -7 -36.333 -21 -51s-31.333 -22 -52 -22s-37.834 7.33301 -51.501 22s-20.5 31.667 -20.5 51c0 20 6.83301 37.167 20.5 51.5s30.834 21.5 51.501 21.5c21.333 0 38.833 -7.16699 52.5 -21.5s20.5 -31.5 20.5 -51.5zM116 601
c0 26.667 -11.999 40 -35.999 40c-10.667 0 -19.167 -3.66699 -25.5 -11s-9.5 -17 -9.5 -29s3.16699 -21.667 9.5 -29s14.833 -11 25.5 -11c11.333 0 20.166 3.66699 26.499 11s9.5 17 9.5 29z" />
    <glyph glyph-name="plusminus" unicode="&#xb1;" horiz-adv-x="520" 
d="M496 0h-472v492h472v-492zM445 49v394h-370v-394h370z" />
    <glyph glyph-name="acute" unicode="&#xb4;" horiz-adv-x="104" 
d="M101 646l-50 -122h-35l31 122h54z" />
    <glyph glyph-name="paragraph" unicode="&#xb6;" horiz-adv-x="353" 
d="M323 -173h-43v762h-44v-762h-43v364h-27c-41.333 0 -75.833 21.167 -103.5 63.5s-41.5 97.5 -41.5 165.5v16c0 68.667 13.667 124.167 41 166.5s62 63.5 104 63.5h157v-839zM193 256v333h-13c-14.667 0 -26.5 -10 -35.5 -30s-13.5 -44.333 -13.5 -73v-151
c0 -52.667 16.333 -79 49 -79h13z" />
    <glyph glyph-name="periodcentered" unicode="&#xb7;" horiz-adv-x="92" 
d="M74 282h-56v100h56v-100z" />
    <glyph glyph-name="cedilla" unicode="&#xb8;" horiz-adv-x="93" 
d="M100 -101c0 -14.667 -4.83301 -27.333 -14.5 -38s-21.5 -16 -35.5 -16c-6.66699 0 -13 2 -19 6v16h11c13.333 0 20 8 20 24v15c0 16 -6.66699 24 -20 24c-8 0 -15 -3.66699 -21 -11l-16 14l47 80l16 -14l-31 -53c3.33301 3.33301 9.33301 5 18 5
c14 0 25 -4.83301 33 -14.5s12 -22.167 12 -37.5z" />
    <glyph glyph-name="ordmasculine" unicode="&#xba;" horiz-adv-x="185" 
d="M169 396c0 -27.333 -7.16699 -49.168 -21.5 -65.501s-32.5 -24.5 -54.5 -24.5s-40.333 8.33301 -55 25s-22 38.334 -22 65.001v188c0 26.667 7.33301 48.334 22 65.001s33 25 55 25s40.167 -8.33301 54.5 -25s21.5 -38.334 21.5 -65.001v-188zM114 384.998v208.999
c0 18 -7 27 -21 27c-6.66699 0 -12 -2.66699 -16 -8s-6 -11.666 -6 -18.999v-209c0 -7.33301 2 -13.5 6 -18.5s9.33301 -7.5 16 -7.5c14 0 21 8.66699 21 26z" />
    <glyph glyph-name="guillemotright" unicode="&#xbb;" horiz-adv-x="260" 
d="M243 168c-47.333 -32.667 -75.666 -88.667 -84.999 -168h-26c0 92.667 18 157 54 193c-36 36 -54 100.667 -54 194h26c9.33301 -79.333 37.666 -135.333 84.999 -168v-51zM129 168c-48 -32.667 -76.667 -88.667 -86 -168h-25c0 92.667 18 157 54 193
c-36 36 -54 100.667 -54 194h25c9.33301 -79.333 38 -135.333 86 -168v-51z" />
    <glyph glyph-name="questiondown" unicode="&#xbf;" horiz-adv-x="185" 
d="M75 480h53v-96h-53v96zM-1 -60c0 64 17 139 51 225c19.333 46.667 29 95.334 29 146.001h46c0 -50.667 -14.667 -127 -44 -229c-13.333 -47.333 -20 -93 -20 -137c0 -24.667 2.16699 -41.834 6.5 -51.501s11.5 -14.5 21.5 -14.5c18.667 0 28 13 28 39v93h56v-95
c0 -33.333 -7.33301 -60 -22 -80s-35.667 -30 -63 -30c-59.333 0 -89 44.667 -89 134z" />
    <glyph glyph-name="Agrave" unicode="&#xc0;" horiz-adv-x="217" 
d="M212 0h-72l-7 128h-56l-11 -128h-62l67 666h75zM128 200l-19 301l-26 -301h45zM125 696h-35l-51 122h55z" />
    <glyph glyph-name="Aacute" unicode="&#xc1;" horiz-adv-x="217" 
d="M212 0h-72l-7 128h-56l-11 -128h-62l67 666h75zM128 200l-19 301l-26 -301h45zM176 818l-50 -122h-35l31 122h54z" />
    <glyph glyph-name="Acircumflex" unicode="&#xc2;" horiz-adv-x="217" 
d="M212 0h-72l-7 128h-56l-11 -128h-62l67 666h75zM128 200l-19 301l-26 -301h45zM192 702c-8.66699 -4 -18.001 -6 -28.001 -6c-30 0 -48 20 -54 60c-6.66699 -40 -24.667 -60 -54 -60c-7.33301 0 -15.666 2 -24.999 6v20c11.333 0 23.5 7.83301 36.5 23.5
s22.167 37.167 27.5 64.5h33c5.33301 -27.333 14.5 -48.833 27.5 -64.5s25.167 -23.5 36.5 -23.5v-20z" />
    <glyph glyph-name="Atilde" unicode="&#xc3;" horiz-adv-x="217" 
d="M212 0h-72l-7 128h-56l-11 -128h-62l67 666h75zM128 200l-19 301l-26 -301h45zM185 764c0 -42 -13.666 -63 -40.999 -63c-8.66699 0 -20.334 6.5 -35.001 19.5s-24 19.5 -28 19.5c-8 0 -12 -5 -12 -15v-23h-26c-4.66699 9.33301 -7 19.333 -7 30
c0 41.333 13.333 62 40 62c9.33301 0 21.5 -6.33301 36.5 -19s24.167 -19 27.5 -19c8 0 12 5 12 15v23h26c4.66699 -8 7 -18 7 -30z" />
    <glyph glyph-name="Adieresis" unicode="&#xc4;" horiz-adv-x="217" 
d="M212 0h-72l-7 128h-56l-11 -128h-62l67 666h75zM128 200l-19 301l-26 -301h45zM169 709h-45v84h45v-84zM96 709h-44v84h44v-84z" />
    <glyph glyph-name="Aring" unicode="&#xc5;" horiz-adv-x="217" 
d="M79 666c-8.66699 10.667 -13 23 -13 37c0 14.667 4.16699 27.334 12.5 38.001s18.5 16 30.5 16s22 -5.33301 30 -16s12 -23.334 12 -38.001s-4 -27 -12 -37h7l66 -666h-72l-7 128h-56l-11 -128h-62l67 666h8zM130 703c0 22 -7 33 -21 33s-21 -11 -21 -33
c0 -21.333 7 -32 21 -32s21 10.667 21 32zM128 200l-19 301l-26 -301h45z" />
    <glyph glyph-name="AE" unicode="&#xc6;" horiz-adv-x="312" 
d="M299 0h-162v128h-52l-16 -128h-65l97 666h198v-69h-92v-220h64v-68h-64v-240h92v-69zM137 200v327l-42 -327h42z" />
    <glyph glyph-name="Ccedilla" unicode="&#xc7;" horiz-adv-x="226" 
d="M100 -6c-23.333 4.66699 -42.498 17.168 -57.498 37.501s-22.5 45.166 -22.5 74.499v454c0 32.667 9.66699 59.834 29 81.501s42.666 32.5 69.999 32.5c28 0 50.167 -10.5 66.5 -31.5s24.5 -48.5 24.5 -82.5v-127h-59v134c0 22.667 -10 34 -30 34
c-20.667 0 -31 -11.333 -31 -34v-468c0 -22.667 10.333 -34 31 -34c20 0 30 11.333 30 34v135h59v-128c0 -33.333 -7.83301 -60.333 -23.5 -81s-36.834 -31.667 -63.501 -33l-27 -46c3.33301 3.33301 9.33301 5 18 5c14 0 25 -4.83301 33 -14.5s12 -22.167 12 -37.5
c0 -14.667 -4.83301 -27.334 -14.5 -38.001s-21.5 -16 -35.5 -16c-6.66699 0 -13 2 -19 6v16h11c13.333 0 20 8 20 24v15c0 16 -6.66699 24 -20 24c-8 0 -15 -3.66699 -21 -11l-16 14z" />
    <glyph glyph-name="Egrave" unicode="&#xc8;" 
d="M187 0h-161v666h161v-69h-92v-220h65v-69h-65v-239h92v-69zM123 696h-35l-51 122h55z" />
    <glyph glyph-name="Eacute" unicode="&#xc9;" 
d="M187 0h-161v666h161v-69h-92v-220h65v-69h-65v-239h92v-69zM168 818l-50 -122h-35l31 122h54z" />
    <glyph glyph-name="Ecircumflex" unicode="&#xca;" 
d="M187 0h-161v666h161v-69h-92v-220h65v-69h-65v-239h92v-69zM187 702c-8.66699 -4 -18.001 -6 -28.001 -6c-30 0 -48 20 -54 60c-6.66699 -40 -24.667 -60 -54 -60c-7.33301 0 -15.666 2 -24.999 6v20c11.333 0 23.5 7.83301 36.5 23.5s22.167 37.167 27.5 64.5h33
c5.33301 -27.333 14.5 -48.833 27.5 -64.5s25.167 -23.5 36.5 -23.5v-20z" />
    <glyph glyph-name="Edieresis" unicode="&#xcb;" 
d="M187 0h-161v666h161v-69h-92v-220h65v-69h-65v-239h92v-69zM167 709h-45v84h45v-84zM94 709h-44v84h44v-84z" />
    <glyph glyph-name="Igrave" unicode="&#xcc;" horiz-adv-x="122" 
d="M96 0h-70v666h70v-666zM78 696h-35l-51 122h55z" />
    <glyph glyph-name="Iacute" unicode="&#xcd;" horiz-adv-x="122" 
d="M96 0h-70v666h70v-666zM129 818l-50 -122h-35l31 122h54z" />
    <glyph glyph-name="Icircumflex" unicode="&#xce;" horiz-adv-x="122" 
d="M96 0h-70v666h70v-666zM144 702c-8.66699 -4 -18.001 -6 -28.001 -6c-30 0 -48 20 -54 60c-6.66699 -40 -24.667 -60 -54 -60c-7.33301 0 -15.666 2 -24.999 6v20c11.333 0 23.5 7.83301 36.5 23.5s22.167 37.167 27.5 64.5h33c5.33301 -27.333 14.5 -48.833 27.5 -64.5
s25.167 -23.5 36.5 -23.5v-20z" />
    <glyph glyph-name="Idieresis" unicode="&#xcf;" horiz-adv-x="122" 
d="M96 0h-70v666h70v-666zM120 709h-45v84h45v-84zM47 709h-44v84h44v-84z" />
    <glyph glyph-name="Eth" unicode="&#xd0;" horiz-adv-x="244" 
d="M29 302h-34v60h34v304h103c60.667 0 91 -39.333 91 -118v-430c0 -78.667 -30.333 -118 -91 -118h-103v302zM98 362h28v-60h-28v-232h30c17.333 0 26 14 26 42v441c0 28 -8.66699 42 -26 42h-30v-233z" />
    <glyph glyph-name="Ntilde" unicode="&#xd1;" horiz-adv-x="258" 
d="M234 0h-55l-77 336l-17 96v-432h-61v666h70l64 -336l15 -97v433h61v-666zM204 764c0 -42 -13.666 -63 -40.999 -63c-8.66699 0 -20.334 6.5 -35.001 19.5s-24 19.5 -28 19.5c-8 0 -12 -5 -12 -15v-23h-26c-4.66699 9.33301 -7 19.333 -7 30c0 41.333 13.333 62 40 62
c9.33301 0 21.5 -6.33301 36.5 -19s24.167 -19 27.5 -19c8 0 12 5 12 15v23h26c4.66699 -8 7 -18 7 -30z" />
    <glyph glyph-name="Ograve" unicode="&#xd2;" horiz-adv-x="241" 
d="M219 106c0 -33.333 -9.66699 -60.666 -29 -81.999s-42.666 -32 -69.999 -32s-50.666 10.667 -69.999 32s-29 48.666 -29 81.999v454c0 32.667 9.66699 59.834 29 81.501s42.666 32.5 69.999 32.5s50.666 -10.833 69.999 -32.5s29 -48.834 29 -81.501v-454zM149 97v472
c0 9.33301 -2.66699 17 -8 23s-12.333 9 -21 9c-19.333 0 -29 -10.667 -29 -32v-472c0 -21.333 9.66699 -32 29 -32s29 10.667 29 32zM136 696h-35l-51 122h55z" />
    <glyph glyph-name="Oacute" unicode="&#xd3;" horiz-adv-x="241" 
d="M219 106c0 -33.333 -9.66699 -60.666 -29 -81.999s-42.666 -32 -69.999 -32s-50.666 10.667 -69.999 32s-29 48.666 -29 81.999v454c0 32.667 9.66699 59.834 29 81.501s42.666 32.5 69.999 32.5s50.666 -10.833 69.999 -32.5s29 -48.834 29 -81.501v-454zM149 97v472
c0 9.33301 -2.66699 17 -8 23s-12.333 9 -21 9c-19.333 0 -29 -10.667 -29 -32v-472c0 -21.333 9.66699 -32 29 -32s29 10.667 29 32zM186 818l-50 -122h-35l31 122h54z" />
    <glyph glyph-name="Ocircumflex" unicode="&#xd4;" horiz-adv-x="241" 
d="M219 106c0 -33.333 -9.66699 -60.666 -29 -81.999s-42.666 -32 -69.999 -32s-50.666 10.667 -69.999 32s-29 48.666 -29 81.999v454c0 32.667 9.66699 59.834 29 81.501s42.666 32.5 69.999 32.5s50.666 -10.833 69.999 -32.5s29 -48.834 29 -81.501v-454zM149 97v472
c0 9.33301 -2.66699 17 -8 23s-12.333 9 -21 9c-19.333 0 -29 -10.667 -29 -32v-472c0 -21.333 9.66699 -32 29 -32s29 10.667 29 32zM202 702c-8.66699 -4 -18.001 -6 -28.001 -6c-30 0 -48 20 -54 60c-6.66699 -40 -24.667 -60 -54 -60c-7.33301 0 -15.666 2 -24.999 6v20
c11.333 0 23.5 7.83301 36.5 23.5s22.167 37.167 27.5 64.5h33c5.33301 -27.333 14.5 -48.833 27.5 -64.5s25.167 -23.5 36.5 -23.5v-20z" />
    <glyph glyph-name="Otilde" unicode="&#xd5;" horiz-adv-x="241" 
d="M219 106c0 -33.333 -9.66699 -60.666 -29 -81.999s-42.666 -32 -69.999 -32s-50.666 10.667 -69.999 32s-29 48.666 -29 81.999v454c0 32.667 9.66699 59.834 29 81.501s42.666 32.5 69.999 32.5s50.666 -10.833 69.999 -32.5s29 -48.834 29 -81.501v-454zM149 97v472
c0 9.33301 -2.66699 17 -8 23s-12.333 9 -21 9c-19.333 0 -29 -10.667 -29 -32v-472c0 -21.333 9.66699 -32 29 -32s29 10.667 29 32zM193 764c0 -42 -13.666 -63 -40.999 -63c-8.66699 0 -20.334 6.5 -35.001 19.5s-24 19.5 -28 19.5c-8 0 -12 -5 -12 -15v-23h-26
c-4.66699 9.33301 -7 19.333 -7 30c0 41.333 13.333 62 40 62c9.33301 0 21.5 -6.33301 36.5 -19s24.167 -19 27.5 -19c8 0 12 5 12 15v23h26c4.66699 -8 7 -18 7 -30z" />
    <glyph glyph-name="Odieresis" unicode="&#xd6;" horiz-adv-x="241" 
d="M219 106c0 -33.333 -9.66699 -60.666 -29 -81.999s-42.666 -32 -69.999 -32s-50.666 10.667 -69.999 32s-29 48.666 -29 81.999v454c0 32.667 9.66699 59.834 29 81.501s42.666 32.5 69.999 32.5s50.666 -10.833 69.999 -32.5s29 -48.834 29 -81.501v-454zM149 97v472
c0 9.33301 -2.66699 17 -8 23s-12.333 9 -21 9c-19.333 0 -29 -10.667 -29 -32v-472c0 -21.333 9.66699 -32 29 -32s29 10.667 29 32zM179 709h-45v84h45v-84zM106 709h-44v84h44v-84z" />
    <glyph glyph-name="multiply" unicode="&#xd7;" horiz-adv-x="270" 
d="M227 280l-39 -39l-54 53l-53 -53l-38 38l53 53l-53 54l39 38l53 -54l53 54l39 -38l-55 -53z" />
    <glyph glyph-name="Oslash" unicode="&#xd8;" horiz-adv-x="241" 
d="M32 55c-7.33301 16 -11.001 33 -11.001 51v454c0 33.333 9.5 60.666 28.5 81.999s42.5 32 70.5 32c21.333 0 41 -7 59 -21l9 38l37 -10l-17 -70c7.33301 -17.333 11 -34.333 11 -51v-454c0 -33.333 -9.66699 -60.666 -29 -81.999s-42.666 -32 -69.999 -32
c-21.333 0 -41 7 -59 21l-9 -38l-38 10zM89.999 288l58.999 249v37c-2 18 -11.667 27 -29 27c-9.33301 0 -16.666 -3 -21.999 -9s-8 -13.667 -8 -23v-281zM148.998 378l-58 -249v-38c2 -17.333 11.667 -26 29 -26c19.333 0 29 10.667 29 32v281z" />
    <glyph glyph-name="Ugrave" unicode="&#xd9;" horiz-adv-x="238" 
d="M215 106c0 -33.333 -9.16895 -60.666 -27.502 -81.999s-41.166 -32 -68.499 -32s-50.166 10.667 -68.499 32s-27.5 48.666 -27.5 81.999v560h69v-566c0 -23.333 9.33301 -35 28 -35c19.333 0 29 11.667 29 35v566h66v-560zM138.998 696h-35l-51 122h55z" />
    <glyph glyph-name="Uacute" unicode="&#xda;" horiz-adv-x="238" 
d="M215 106c0 -33.333 -9.16895 -60.666 -27.502 -81.999s-41.166 -32 -68.499 -32s-50.166 10.667 -68.499 32s-27.5 48.666 -27.5 81.999v560h69v-566c0 -23.333 9.33301 -35 28 -35c19.333 0 29 11.667 29 35v566h66v-560zM187.998 818l-50 -122h-35l31 122h54z" />
    <glyph glyph-name="Ucircumflex" unicode="&#xdb;" horiz-adv-x="238" 
d="M215 106c0 -33.333 -9.16895 -60.666 -27.502 -81.999s-41.166 -32 -68.499 -32s-50.166 10.667 -68.499 32s-27.5 48.666 -27.5 81.999v560h69v-566c0 -23.333 9.33301 -35 28 -35c19.333 0 29 11.667 29 35v566h66v-560zM201.998 702
c-8.66699 -4 -18.001 -6 -28.001 -6c-30 0 -48 20 -54 60c-6.66699 -40 -24.667 -60 -54 -60c-7.33301 0 -15.666 2 -24.999 6v20c11.333 0 23.5 7.83301 36.5 23.5s22.167 37.167 27.5 64.5h33c5.33301 -27.333 14.5 -48.833 27.5 -64.5s25.167 -23.5 36.5 -23.5v-20z" />
    <glyph glyph-name="Udieresis" unicode="&#xdc;" horiz-adv-x="238" 
d="M215 106c0 -33.333 -9.16895 -60.666 -27.502 -81.999s-41.166 -32 -68.499 -32s-50.166 10.667 -68.499 32s-27.5 48.666 -27.5 81.999v560h69v-566c0 -23.333 9.33301 -35 28 -35c19.333 0 29 11.667 29 35v566h66v-560zM179.998 709h-45v84h45v-84zM106.998 709h-44
v84h44v-84z" />
    <glyph glyph-name="Yacute" unicode="&#xdd;" horiz-adv-x="216" 
d="M216 666l-78 -405v-261h-69v261l-70 405h67l42 -294l42 294h66zM177 818l-50 -122h-35l31 122h54z" />
    <glyph glyph-name="Thorn" unicode="&#xde;" horiz-adv-x="228" 
d="M215 261c0 -38.667 -8.66699 -65.833 -26 -81.5s-38 -23.5 -62 -23.5h-31v-156h-70v666h70v-122h31c24 0 44.667 -7.66699 62 -23s26 -42.333 26 -81v-179zM147 255.001v186c0 22 -7 33 -21 33h-30v-251h30c14 0 21 10.667 21 32z" />
    <glyph glyph-name="germandbls" unicode="&#xdf;" horiz-adv-x="207" 
d="M186 79c0 -27.333 -5.83105 -48.667 -17.498 -64s-26.834 -23 -45.501 -23c-9.33301 0 -16 2.66699 -20 8v35c6.66699 0 12.667 2.33301 18 7s8 12 8 22v226c0 24 -8.33301 36 -25 36v58c16.667 0 25 12 25 36v140c0 26.667 -7.66699 40 -23 40
c-17.333 0 -26 -13.333 -26 -40v-560h-57v544c0 38.667 7.16699 68.667 21.5 90s34.166 32 59.499 32c26 0 46 -10.5 60 -31.5s21 -50.833 21 -89.5v-121c0 -32.667 -10.333 -57 -31 -73c21.333 -16 32 -40.667 32 -74v-198z" />
    <glyph glyph-name="agrave" unicode="&#xe0;" horiz-adv-x="186" 
d="M173 -8l-13 -0.00195312c-16.667 0 -29.667 11.667 -39 35c-8.66699 -23.333 -23.667 -35 -45 -35c-20 0 -35.5 9.33301 -46.5 28s-16.5 44.334 -16.5 77.001v40c0 58.667 31.667 114.667 95 168v83c0 21.333 -6 32 -18 32s-18 -10.667 -18 -32v-57h-51v54
c0 30 6.66699 54.333 20 73s30.666 28 51.999 28c20.667 0 37.334 -9.16699 50.001 -27.5s19 -42.833 19 -73.5v-320c0 -13.333 3.66699 -20.666 11 -21.999v-51zM108 94.998v138c-26.667 -23.333 -40 -52 -40 -86v-57c0 -23.333 6.33301 -35 19 -35c14 0 21 13.333 21 40z
M111 523.998h-35l-51 122h55z" />
    <glyph glyph-name="aacute" unicode="&#xe1;" horiz-adv-x="186" 
d="M173 -8l-13 -0.00195312c-16.667 0 -29.667 11.667 -39 35c-8.66699 -23.333 -23.667 -35 -45 -35c-20 0 -35.5 9.33301 -46.5 28s-16.5 44.334 -16.5 77.001v40c0 58.667 31.667 114.667 95 168v83c0 21.333 -6 32 -18 32s-18 -10.667 -18 -32v-57h-51v54
c0 30 6.66699 54.333 20 73s30.666 28 51.999 28c20.667 0 37.334 -9.16699 50.001 -27.5s19 -42.833 19 -73.5v-320c0 -13.333 3.66699 -20.666 11 -21.999v-51zM108 94.998v138c-26.667 -23.333 -40 -52 -40 -86v-57c0 -23.333 6.33301 -35 19 -35c14 0 21 13.333 21 40z
M161 645.998l-50 -122h-35l31 122h54z" />
    <glyph glyph-name="acircumflex" unicode="&#xe2;" horiz-adv-x="186" 
d="M173 -8l-13 -0.00195312c-16.667 0 -29.667 11.667 -39 35c-8.66699 -23.333 -23.667 -35 -45 -35c-20 0 -35.5 9.33301 -46.5 28s-16.5 44.334 -16.5 77.001v40c0 58.667 31.667 114.667 95 168v83c0 21.333 -6 32 -18 32s-18 -10.667 -18 -32v-57h-51v54
c0 30 6.66699 54.333 20 73s30.666 28 51.999 28c20.667 0 37.334 -9.16699 50.001 -27.5s19 -42.833 19 -73.5v-320c0 -13.333 3.66699 -20.666 11 -21.999v-51zM108 94.998v138c-26.667 -23.333 -40 -52 -40 -86v-57c0 -23.333 6.33301 -35 19 -35c14 0 21 13.333 21 40z
M176 529.998c-8.66699 -4 -18.001 -6 -28.001 -6c-30 0 -48 20 -54 60c-6.66699 -40 -24.667 -60 -54 -60c-7.33301 0 -15.666 2 -24.999 6v20c11.333 0 23.5 7.83301 36.5 23.5s22.167 37.167 27.5 64.5h33c5.33301 -27.333 14.5 -48.833 27.5 -64.5
s25.167 -23.5 36.5 -23.5v-20z" />
    <glyph glyph-name="atilde" unicode="&#xe3;" horiz-adv-x="186" 
d="M173 -8l-13 -0.00195312c-16.667 0 -29.667 11.667 -39 35c-8.66699 -23.333 -23.667 -35 -45 -35c-20 0 -35.5 9.33301 -46.5 28s-16.5 44.334 -16.5 77.001v40c0 58.667 31.667 114.667 95 168v83c0 21.333 -6 32 -18 32s-18 -10.667 -18 -32v-57h-51v54
c0 30 6.66699 54.333 20 73s30.666 28 51.999 28c20.667 0 37.334 -9.16699 50.001 -27.5s19 -42.833 19 -73.5v-320c0 -13.333 3.66699 -20.666 11 -21.999v-51zM108 94.998v138c-26.667 -23.333 -40 -52 -40 -86v-57c0 -23.333 6.33301 -35 19 -35c14 0 21 13.333 21 40z
M168 591.998c0 -42 -13.666 -63 -40.999 -63c-8.66699 0 -20.334 6.5 -35.001 19.5s-24 19.5 -28 19.5c-8 0 -12 -5 -12 -15v-23h-26c-4.66699 9.33301 -7 19.333 -7 30c0 41.333 13.333 62 40 62c9.33301 0 21.5 -6.33301 36.5 -19s24.167 -19 27.5 -19c8 0 12 5 12 15v23
h26c4.66699 -8 7 -18 7 -30z" />
    <glyph glyph-name="adieresis" unicode="&#xe4;" horiz-adv-x="186" 
d="M173 -8l-13 -0.00195312c-16.667 0 -29.667 11.667 -39 35c-8.66699 -23.333 -23.667 -35 -45 -35c-20 0 -35.5 9.33301 -46.5 28s-16.5 44.334 -16.5 77.001v40c0 58.667 31.667 114.667 95 168v83c0 21.333 -6 32 -18 32s-18 -10.667 -18 -32v-57h-51v54
c0 30 6.66699 54.333 20 73s30.666 28 51.999 28c20.667 0 37.334 -9.16699 50.001 -27.5s19 -42.833 19 -73.5v-320c0 -13.333 3.66699 -20.666 11 -21.999v-51zM108 94.998v138c-26.667 -23.333 -40 -52 -40 -86v-57c0 -23.333 6.33301 -35 19 -35c14 0 21 13.333 21 40z
M153 536.998h-45v84h45v-84zM80 536.998h-44v84h44v-84z" />
    <glyph glyph-name="aring" unicode="&#xe5;" horiz-adv-x="186" 
d="M173 -8l-13 -0.00195312c-16.667 0 -29.667 11.667 -39 35c-8.66699 -23.333 -23.667 -35 -45 -35c-20 0 -35.5 9.33301 -46.5 28s-16.5 44.334 -16.5 77.001v40c0 58.667 31.667 114.667 95 168v83c0 21.333 -6 32 -18 32s-18 -10.667 -18 -32v-57h-51v54
c0 30 6.66699 54.333 20 73s30.666 28 51.999 28c20.667 0 37.334 -9.16699 50.001 -27.5s19 -42.833 19 -73.5v-320c0 -13.333 3.66699 -20.666 11 -21.999v-51zM108 94.998v138c-26.667 -23.333 -40 -52 -40 -86v-57c0 -23.333 6.33301 -35 19 -35c14 0 21 13.333 21 40z
M135 581.998c0 -14.667 -4 -27.334 -12 -38.001s-18 -16 -30 -16s-22.167 5.33301 -30.5 16s-12.5 23.334 -12.5 38.001s4.16699 27.334 12.5 38.001s18.5 16 30.5 16s22 -5.33301 30 -16s12 -23.334 12 -38.001zM114 581.998c0 21.333 -7 32 -21 32s-21 -10.667 -21 -32
c0 -22 7 -33 21 -33s21 11 21 33z" />
    <glyph glyph-name="ae" unicode="&#xe6;" horiz-adv-x="272" 
d="M253 97c0 -30.667 -6.66797 -55.833 -20.001 -75.5s-30 -29.5 -50 -29.5c-21.333 0 -38 10.333 -50 31c-12 -20.667 -29.333 -31 -52 -31c-45.333 0 -68 35 -68 105v40c0 58.667 32 114.667 96 168v83c0 22 -6.66699 33 -20 33c-12 0 -18 -11 -18 -33v-57h-51v54
c0 29.333 6.66699 53.5 20 72.5s29.333 28.5 48 28.5c17.333 0 32.333 -11 45 -33c12.667 22 29.334 33 50.001 33c20 0 36.667 -9.83301 50 -29.5s20 -45.167 20 -76.5v-156h-92v-135c0 -21.333 7.33301 -32 22 -32c13.333 0 20 10.667 20 32v82h50v-74zM202.999 278.001
v109c0 22.667 -6.66699 34 -20 34c-14.667 0 -22 -11.333 -22 -34v-109h42zM108.999 95.001v138c-27.333 -23.333 -41 -52 -41 -86v-57c0 -23.333 6.66699 -35 20 -35c6 0 11 4 15 12s6 17.333 6 28z" />
    <glyph glyph-name="ccedilla" unicode="&#xe7;" horiz-adv-x="183" 
d="M83 -6c-18.667 3.33301 -33.833 14.501 -45.5 33.501s-17.5 42.167 -17.5 69.5v284c0 30.667 7.33301 55.834 22 75.501s32.667 29.5 54 29.5c22 0 39.5 -9.66699 52.5 -29s19.5 -44.666 19.5 -75.999v-75h-47v84c0 20 -7.33301 30 -22 30
c-6 0 -11.167 -2.83301 -15.5 -8.5s-6.5 -12.834 -6.5 -21.501v-303c0 -8.66699 2.16699 -15.667 6.5 -21s9.5 -8 15.5 -8c14.667 0 22 9.66699 22 29v83h47v-73c0 -29.333 -5.33301 -53.333 -16 -72s-26 -29.334 -46 -32.001l-27 -47c3.33301 3.33301 9.33301 5 18 5
c14 0 25 -4.83301 33 -14.5s12 -22.167 12 -37.5c0 -14.667 -4.83301 -27.334 -14.5 -38.001s-21.5 -16 -35.5 -16c-6.66699 0 -13 2 -19 6v16h11c13.333 0 20 8 20 24v15c0 16 -6.66699 24 -20 24c-8 0 -15 -3.66699 -21 -11l-16 14z" />
    <glyph glyph-name="egrave" unicode="&#xe8;" horiz-adv-x="188" 
d="M169 97c0 -31.333 -6.66699 -56.668 -20 -76.001s-30.666 -29 -51.999 -29s-39.5 9.83301 -54.5 29.5s-22.5 44.834 -22.5 75.501v283c0 30.667 7.5 56 22.5 76s33.167 30 54.5 30s38.666 -9.83301 51.999 -29.5s20 -45.167 20 -76.5v-156h-92v-135
c0 -21.333 7.33301 -32 22 -32c13.333 0 20 10.667 20 32v82h50v-74zM119 277.998v109c0 22 -6.66699 33 -20 33c-14.667 0 -22 -11 -22 -33v-109h42zM114 523.998h-35l-51 122h55z" />
    <glyph glyph-name="eacute" unicode="&#xe9;" horiz-adv-x="188" 
d="M169 97c0 -31.333 -6.66699 -56.668 -20 -76.001s-30.666 -29 -51.999 -29s-39.5 9.83301 -54.5 29.5s-22.5 44.834 -22.5 75.501v283c0 30.667 7.5 56 22.5 76s33.167 30 54.5 30s38.666 -9.83301 51.999 -29.5s20 -45.167 20 -76.5v-156h-92v-135
c0 -21.333 7.33301 -32 22 -32c13.333 0 20 10.667 20 32v82h50v-74zM119 277.998v109c0 22 -6.66699 33 -20 33c-14.667 0 -22 -11 -22 -33v-109h42zM163 645.998l-50 -122h-35l31 122h54z" />
    <glyph glyph-name="ecircumflex" unicode="&#xea;" horiz-adv-x="188" 
d="M169 97c0 -31.333 -6.66699 -56.668 -20 -76.001s-30.666 -29 -51.999 -29s-39.5 9.83301 -54.5 29.5s-22.5 44.834 -22.5 75.501v283c0 30.667 7.5 56 22.5 76s33.167 30 54.5 30s38.666 -9.83301 51.999 -29.5s20 -45.167 20 -76.5v-156h-92v-135
c0 -21.333 7.33301 -32 22 -32c13.333 0 20 10.667 20 32v82h50v-74zM119 277.998v109c0 22 -6.66699 33 -20 33c-14.667 0 -22 -11 -22 -33v-109h42zM178 529.998c-8.66699 -4 -18.001 -6 -28.001 -6c-30 0 -48 20 -54 60c-6.66699 -40 -24.667 -60 -54 -60
c-7.33301 0 -15.666 2 -24.999 6v20c11.333 0 23.5 7.83301 36.5 23.5s22.167 37.167 27.5 64.5h33c5.33301 -27.333 14.5 -48.833 27.5 -64.5s25.167 -23.5 36.5 -23.5v-20z" />
    <glyph glyph-name="edieresis" unicode="&#xeb;" horiz-adv-x="188" 
d="M169 97c0 -31.333 -6.66699 -56.668 -20 -76.001s-30.666 -29 -51.999 -29s-39.5 9.83301 -54.5 29.5s-22.5 44.834 -22.5 75.501v283c0 30.667 7.5 56 22.5 76s33.167 30 54.5 30s38.666 -9.83301 51.999 -29.5s20 -45.167 20 -76.5v-156h-92v-135
c0 -21.333 7.33301 -32 22 -32c13.333 0 20 10.667 20 32v82h50v-74zM119 277.998v109c0 22 -6.66699 33 -20 33c-14.667 0 -22 -11 -22 -33v-109h42zM155 536.998h-45v84h45v-84zM82 536.998h-44v84h44v-84z" />
    <glyph glyph-name="igrave" unicode="&#xec;" horiz-adv-x="104" 
d="M80 0h-57v480h57v-480zM68 524h-35l-51 122h55z" />
    <glyph glyph-name="iacute" unicode="&#xed;" horiz-adv-x="104" 
d="M80 0h-57v480h57v-480zM119 646l-50 -122h-35l31 122h54z" />
    <glyph glyph-name="icircumflex" unicode="&#xee;" horiz-adv-x="104" 
d="M80 0h-57v480h57v-480zM133 530c-8.66699 -4 -18.001 -6 -28.001 -6c-30 0 -48 20 -54 60c-6.66699 -40 -24.667 -60 -54 -60c-7.33301 0 -15.666 2 -24.999 6v20c11.333 0 23.5 7.83301 36.5 23.5s22.167 37.167 27.5 64.5h33c5.33301 -27.333 14.5 -48.833 27.5 -64.5
s25.167 -23.5 36.5 -23.5v-20z" />
    <glyph glyph-name="idieresis" unicode="&#xef;" horiz-adv-x="104" 
d="M80 0h-57v480h57v-480zM109 537h-45v84h45v-84zM36 537h-44v84h44v-84z" />
    <glyph glyph-name="eth" unicode="&#xf0;" horiz-adv-x="196" 
d="M146 623l24.999 14.998l15 -39l-26 -16c10.667 -36.667 16 -88 16 -154v-332c0 -30.667 -7.5 -55.834 -22.5 -75.501s-33.5 -29.5 -55.5 -29.5s-40.5 9.83301 -55.5 29.5s-22.5 44.834 -22.5 75.501v306c0 22 4.83301 40.333 14.5 55s22.167 22 37.5 22
c21.333 0 37 -11.333 47 -34c0 46 -2.66699 82 -8 108l-37 -21l-15 39l40 23c-8 22.667 -21.333 45.334 -40 68.001v3h61c8.66699 -11.333 17.334 -25.666 26.001 -42.999zM77.999 84.998c0 -18 6.66699 -27 20 -27c14 0 21 9 21 27v308c0 8.66699 -2 15.667 -6 21
s-9 8 -15 8c-13.333 0 -20 -9.66699 -20 -29v-308z" />
    <glyph glyph-name="ntilde" unicode="&#xf1;" horiz-adv-x="201" 
d="M178 0l-56 -0.000976562v393c0 8.66699 -2 15.667 -6 21s-9 8 -15 8s-11 -2.66699 -15 -8s-6 -12.333 -6 -21v-393h-57v480h54l3 -34c8.66699 26.667 24 40 46 40c15.333 0 27.833 -7.16699 37.5 -21.5s14.5 -33.166 14.5 -56.499v-408zM174 591.999
c0 -42 -13.666 -63 -40.999 -63c-8.66699 0 -20.334 6.5 -35.001 19.5s-24 19.5 -28 19.5c-8 0 -12 -5 -12 -15v-23h-26c-4.66699 9.33301 -7 19.333 -7 30c0 41.333 13.333 62 40 62c9.33301 0 21.5 -6.33301 36.5 -19s24.167 -19 27.5 -19c8 0 12 5 12 15v23h26
c4.66699 -8 7 -18 7 -30z" />
    <glyph glyph-name="ograve" unicode="&#xf2;" horiz-adv-x="196" 
d="M175 97c0 -30.667 -7.33301 -55.834 -22 -75.501s-33 -29.5 -55 -29.5s-40.5 9.83301 -55.5 29.5s-22.5 44.834 -22.5 75.501v283c0 30.667 7.5 56 22.5 76s33.5 30 55.5 30s40.333 -9.83301 55 -29.5s22 -45.167 22 -76.5v-283zM119 85v306c0 19.333 -7 29 -21 29
c-13.333 0 -20 -9.66699 -20 -29v-306c0 -18 6.66699 -27 20 -27c14 0 21 9 21 27zM116 524h-35l-51 122h55z" />
    <glyph glyph-name="oacute" unicode="&#xf3;" horiz-adv-x="196" 
d="M175 97c0 -30.667 -7.33301 -55.834 -22 -75.501s-33 -29.5 -55 -29.5s-40.5 9.83301 -55.5 29.5s-22.5 44.834 -22.5 75.501v283c0 30.667 7.5 56 22.5 76s33.5 30 55.5 30s40.333 -9.83301 55 -29.5s22 -45.167 22 -76.5v-283zM119 85v306c0 19.333 -7 29 -21 29
c-13.333 0 -20 -9.66699 -20 -29v-306c0 -18 6.66699 -27 20 -27c14 0 21 9 21 27zM166 646l-50 -122h-35l31 122h54z" />
    <glyph glyph-name="ocircumflex" unicode="&#xf4;" horiz-adv-x="196" 
d="M175 97c0 -30.667 -7.33301 -55.834 -22 -75.501s-33 -29.5 -55 -29.5s-40.5 9.83301 -55.5 29.5s-22.5 44.834 -22.5 75.501v283c0 30.667 7.5 56 22.5 76s33.5 30 55.5 30s40.333 -9.83301 55 -29.5s22 -45.167 22 -76.5v-283zM119 85v306c0 19.333 -7 29 -21 29
c-13.333 0 -20 -9.66699 -20 -29v-306c0 -18 6.66699 -27 20 -27c14 0 21 9 21 27zM180 530c-8.66699 -4 -18.001 -6 -28.001 -6c-30 0 -48 20 -54 60c-6.66699 -40 -24.667 -60 -54 -60c-7.33301 0 -15.666 2 -24.999 6v20c11.333 0 23.5 7.83301 36.5 23.5
s22.167 37.167 27.5 64.5h33c5.33301 -27.333 14.5 -48.833 27.5 -64.5s25.167 -23.5 36.5 -23.5v-20z" />
    <glyph glyph-name="otilde" unicode="&#xf5;" horiz-adv-x="196" 
d="M175 97c0 -30.667 -7.33301 -55.834 -22 -75.501s-33 -29.5 -55 -29.5s-40.5 9.83301 -55.5 29.5s-22.5 44.834 -22.5 75.501v283c0 30.667 7.5 56 22.5 76s33.5 30 55.5 30s40.333 -9.83301 55 -29.5s22 -45.167 22 -76.5v-283zM119 85v306c0 19.333 -7 29 -21 29
c-13.333 0 -20 -9.66699 -20 -29v-306c0 -18 6.66699 -27 20 -27c14 0 21 9 21 27zM172 592c0 -42 -13.666 -63 -40.999 -63c-8.66699 0 -20.334 6.5 -35.001 19.5s-24 19.5 -28 19.5c-8 0 -12 -5 -12 -15v-23h-26c-4.66699 9.33301 -7 19.333 -7 30
c0 41.333 13.333 62 40 62c9.33301 0 21.5 -6.33301 36.5 -19s24.167 -19 27.5 -19c8 0 12 5 12 15v23h26c4.66699 -8 7 -18 7 -30z" />
    <glyph glyph-name="odieresis" unicode="&#xf6;" horiz-adv-x="196" 
d="M175 97c0 -30.667 -7.33301 -55.834 -22 -75.501s-33 -29.5 -55 -29.5s-40.5 9.83301 -55.5 29.5s-22.5 44.834 -22.5 75.501v283c0 30.667 7.5 56 22.5 76s33.5 30 55.5 30s40.333 -9.83301 55 -29.5s22 -45.167 22 -76.5v-283zM119 85v306c0 19.333 -7 29 -21 29
c-13.333 0 -20 -9.66699 -20 -29v-306c0 -18 6.66699 -27 20 -27c14 0 21 9 21 27zM157 537h-45v84h45v-84zM84 537h-44v84h44v-84z" />
    <glyph glyph-name="oslash" unicode="&#xf8;" horiz-adv-x="196" 
d="M21 86c0 1.33301 -0.166992 3.50098 -0.5 6.50098s-0.5 5.16699 -0.5 6.5v281c0 30.667 7.5 56 22.5 76s33.5 30 55.5 30c29.333 0 51 -16 65 -48l21 50l24 -17c-16.667 -40.667 -28 -67.667 -34 -81c0.666992 -2 1 -6 1 -12v-281
c0 -30.667 -7.33301 -55.834 -22 -75.501s-33 -29.5 -55 -29.5c-28.667 0 -50.667 15.667 -66 47l-20 -49l-23 17zM77 223.001l42 104v64c0 20 -7 30 -21 30s-21 -10 -21 -30v-168zM119 252.001l-11 -26l-20 -51l-11 -26v-64c0 -18 7 -27 21 -27s21 9 21 27v167z" />
    <glyph glyph-name="ugrave" unicode="&#xf9;" 
d="M177 0h-54l-3 31c-8.66699 -26 -24 -39 -46 -39c-15.333 0 -27.833 7.16699 -37.5 21.5s-14.5 32.833 -14.5 55.5v411h56v-396c0 -8.66699 2.16699 -15.667 6.5 -21s9.5 -8 15.5 -8c13.333 0 20 9.66699 20 29v396h57v-480zM117 524h-35l-51 122h55z" />
    <glyph glyph-name="uacute" unicode="&#xfa;" 
d="M177 0h-54l-3 31c-8.66699 -26 -24 -39 -46 -39c-15.333 0 -27.833 7.16699 -37.5 21.5s-14.5 32.833 -14.5 55.5v411h56v-396c0 -8.66699 2.16699 -15.667 6.5 -21s9.5 -8 15.5 -8c13.333 0 20 9.66699 20 29v396h57v-480zM167 646l-50 -122h-35l31 122h54z" />
    <glyph glyph-name="ucircumflex" unicode="&#xfb;" 
d="M177 0h-54l-3 31c-8.66699 -26 -24 -39 -46 -39c-15.333 0 -27.833 7.16699 -37.5 21.5s-14.5 32.833 -14.5 55.5v411h56v-396c0 -8.66699 2.16699 -15.667 6.5 -21s9.5 -8 15.5 -8c13.333 0 20 9.66699 20 29v396h57v-480zM181 530c-8.66699 -4 -18.001 -6 -28.001 -6
c-30 0 -48 20 -54 60c-6.66699 -40 -24.667 -60 -54 -60c-7.33301 0 -15.666 2 -24.999 6v20c11.333 0 23.5 7.83301 36.5 23.5s22.167 37.167 27.5 64.5h33c5.33301 -27.333 14.5 -48.833 27.5 -64.5s25.167 -23.5 36.5 -23.5v-20z" />
    <glyph glyph-name="udieresis" unicode="&#xfc;" 
d="M177 0h-54l-3 31c-8.66699 -26 -24 -39 -46 -39c-15.333 0 -27.833 7.16699 -37.5 21.5s-14.5 32.833 -14.5 55.5v411h56v-396c0 -8.66699 2.16699 -15.667 6.5 -21s9.5 -8 15.5 -8c13.333 0 20 9.66699 20 29v396h57v-480zM158 537h-45v84h45v-84zM85 537h-44v84h44v-84
z" />
    <glyph glyph-name="yacute" unicode="&#xfd;" horiz-adv-x="172" 
d="M163 480l-59 -535c-5.33301 -46.667 -13.333 -78.5 -24 -95.5s-31 -25.5 -61 -25.5h-5v61h9c14 0 22.667 12.667 26 38l9 82l-51 475h56l17 -235l6 -100l6 100l17 235h54zM156 646l-50 -122h-35l31 122h54z" />
    <glyph glyph-name="thorn" unicode="&#xfe;" horiz-adv-x="198" 
d="M178 71c0 -22.667 -4.83301 -41.168 -14.5 -55.501s-22.167 -21.5 -37.5 -21.5c-20.667 0 -36 11.333 -46 34v-201h-57v839h57v-211c10 22.667 25.333 34 46 34c15.333 0 27.833 -7.16699 37.5 -21.5s14.5 -33.166 14.5 -56.499v-340zM122 85.999v310
c0 8.66699 -2 15.667 -6 21s-9 8 -15 8s-11 -2.66699 -15 -8s-6 -12.333 -6 -21v-310c0 -8 2 -14.667 6 -20s9 -8 15 -8s11 2.66699 15 8s6 12 6 20z" />
    <glyph glyph-name="ydieresis" unicode="&#xff;" horiz-adv-x="172" 
d="M163 480l-59 -535c-5.33301 -46.667 -13.333 -78.5 -24 -95.5s-31 -25.5 -61 -25.5h-5v61h9c14 0 22.667 12.667 26 38l9 82l-51 475h56l17 -235l6 -100l6 100l17 235h54zM147 537h-45v84h45v-84zM74 537h-44v84h44v-84z" />
    <glyph glyph-name="dotlessi" unicode="&#x131;" horiz-adv-x="104" 
d="M80 0h-57v480h57v-480z" />
    <glyph glyph-name="Lslash" unicode="&#x141;" horiz-adv-x="211" 
d="M115 365v-296h88v-69h-157v236l-36 -67l-22 17l58 109v371h69v-241l38 72l23 -17z" />
    <glyph glyph-name="lslash" unicode="&#x142;" horiz-adv-x="138" 
d="M157 483l-59 -123v-360h-57v238l-37 -74l-22 18l59 122v362h57v-239l37 75z" />
    <glyph glyph-name="OE" unicode="&#x152;" horiz-adv-x="320" 
d="M307 0h-195c-60.667 -0 -91 39.333 -91 118v430c0 78.667 30.333 118 91 118h195v-69h-92v-220h65v-68h-65v-240h92v-69zM146 70v525h-30c-17.333 0 -26 -14 -26 -42v-441c0 -28 8.66699 -42 26 -42h30z" />
    <glyph glyph-name="oe" unicode="&#x153;" horiz-adv-x="285" 
d="M266 97c0 -31.333 -6.66602 -56.668 -19.999 -76.001s-30 -29 -50 -29c-20.667 0 -37 10.333 -49 31c-12.667 -20.667 -29.667 -31 -51 -31c-20 0 -37.667 9.83301 -53 29.5s-23 44.834 -23 75.501v283c0 30.667 7.66699 56 23 76s33 30 53 30
c20.667 0 37.667 -11 51 -33c11.333 22 27.666 33 48.999 33c20 0 36.667 -9.83301 50 -29.5s20 -45.167 20 -76.5v-156h-92v-135c0 -21.333 7.33301 -32 22 -32c14 0 21 10.667 21 32v82h49v-74zM217.001 277.998v109c0 22.667 -7 34 -21 34c-14.667 0 -22 -11.333 -22 -34
v-109h43zM118.001 84.998v306.001c0 20 -6.66699 30 -20 30c-6 0 -11 -2.83301 -15 -8.5s-6 -12.834 -6 -21.501v-306c0 -8 2 -14.5 6 -19.5s9 -7.5 15 -7.5c13.333 0 20 9 20 27z" />
    <glyph glyph-name="Scaron" unicode="&#x160;" horiz-adv-x="225" 
d="M211 120c0 -46.667 -10.001 -79.6719 -30.001 -99.0049s-43 -29 -69 -29c-31.333 0 -55.666 10.5 -72.999 31.5s-26 49.833 -26 86.5v85h63v-93c0 -30.667 11 -46 33 -46c23.333 0 35 15.333 35 46c0 54.667 -18 121.667 -54 201
c-49.333 106.667 -74 186.334 -74 239.001c0 40.667 8.5 72.834 25.5 96.501s42.5 35.5 76.5 35.5c28 0 50 -10.333 66 -31s24 -49.667 24 -87v-93h-62v98c0 29.333 -9.33301 44 -28 44c-22.667 0 -34 -13.667 -34 -41c0 -35.333 3.5 -65.166 10.5 -89.499
s20.167 -58.166 39.5 -101.499c3.33301 -8 6 -14 8 -18c46 -103.333 69 -181.666 69 -234.999zM195.999 781.995c-11.333 0 -23.499 -7.66699 -36.499 -23s-21.833 -36.666 -26.5 -63.999h-34c-5.33301 27.333 -14.5 48.666 -27.5 63.999s-25.167 23 -36.5 23v20
c8.66699 4.66699 18 7 28 7c30 0 48 -20.333 54 -61c7.33301 40.667 25.333 61 54 61c9.33301 0 17.666 -2.33301 24.999 -7v-20z" />
    <glyph glyph-name="scaron" unicode="&#x161;" horiz-adv-x="177" 
d="M166 107c0 -35.333 -6.83203 -63.334 -20.499 -84.001s-31.834 -31 -54.501 -31c-51.333 0 -77 36.667 -77 110v42h51v-56c0 -22.667 7.33301 -34 22 -34c17.333 0 26 12 26 36c0 24.667 -2.16699 44.334 -6.5 59.001s-15.833 38.334 -34.5 71.001
c-12 20 -21.167 35.833 -27.5 47.5s-13 27.667 -20 48s-10.5 39.5 -10.5 57.5c0 34.667 7 62.167 21 82.5s32 30.5 54 30.5c25.333 0 44.166 -9.83301 56.499 -29.5s18.5 -46.167 18.5 -79.5v-50h-49v61c0 21.333 -8 32 -24 32c-7.33301 0 -13.166 -3.33301 -17.499 -10
s-6.5 -14.667 -6.5 -24c0 -20 3.33301 -38.5 10 -55.5s18.667 -39.833 36 -68.5c12 -21.333 21 -37.833 27 -49.5s11.833 -27.334 17.5 -47.001s8.5 -39.167 8.5 -58.5zM170.001 609.999c-11.333 0 -23.499 -7.66699 -36.499 -23s-21.833 -36.666 -26.5 -63.999h-34
c-5.33301 27.333 -14.5 48.666 -27.5 63.999s-25.167 23 -36.5 23v20c8.66699 4.66699 18 7 28 7c30 0 48 -20.333 54 -61c7.33301 40.667 25.333 61 54 61c9.33301 0 17.666 -2.33301 24.999 -7v-20z" />
    <glyph glyph-name="Ydieresis" unicode="&#x178;" horiz-adv-x="216" 
d="M216 666l-78 -405v-261h-69v261l-70 405h67l42 -294l42 294h66zM168 709h-45v84h45v-84zM95 709h-44v84h44v-84z" />
    <glyph glyph-name="Zcaron" unicode="&#x17d;" horiz-adv-x="191" 
d="M184 631l-110 -562h103v-69h-173v35l110 559h-104v72h174v-35zM178 782c-11.333 0 -23.499 -7.66699 -36.499 -23s-21.833 -36.666 -26.5 -63.999h-34c-5.33301 27.333 -14.5 48.666 -27.5 63.999s-25.167 23 -36.5 23v20c8.66699 4.66699 18 7 28 7
c30 0 48 -20.333 54 -61c7.33301 40.667 25.333 61 54 61c9.33301 0 17.666 -2.33301 24.999 -7v-20z" />
    <glyph glyph-name="zcaron" unicode="&#x17e;" horiz-adv-x="158" 
d="M147 457l-78 -392h73v-65h-135v23l79 393h-72v64h133v-23zM159 610c-11.333 0 -23.499 -7.66699 -36.499 -23s-21.833 -36.666 -26.5 -63.999h-34c-5.33301 27.333 -14.5 48.666 -27.5 63.999s-25.167 23 -36.5 23v20c8.66699 4.66699 18 7 28 7c30 0 48 -20.333 54 -61
c7.33301 40.667 25.333 61 54 61c9.33301 0 17.666 -2.33301 24.999 -7v-20z" />
    <glyph glyph-name="florin" unicode="&#x192;" horiz-adv-x="163" 
d="M115 379h37v-61h-37v-214c0 -40 -6.66699 -70.167 -20 -90.5s-35.666 -30.5 -66.999 -30.5h-6v52h8c13.333 0 20 13 20 39v244h-37v61h37v166c0 40 6.66699 70.167 20 90.5s35.666 30.5 66.999 30.5h7v-52h-9c-13.333 0 -20 -13 -20 -39v-196z" />
    <glyph glyph-name="circumflex" unicode="&#x2c6;" horiz-adv-x="169" 
d="M165 530c-8.66699 -4 -18.001 -6 -28.001 -6c-30 0 -48 20 -54 60c-6.66699 -40 -24.667 -60 -54 -60c-7.33301 0 -15.666 2 -24.999 6v20c11.333 0 23.5 7.83301 36.5 23.5s22.167 37.167 27.5 64.5h33c5.33301 -27.333 14.5 -48.833 27.5 -64.5
s25.167 -23.5 36.5 -23.5v-20z" />
    <glyph glyph-name="caron" unicode="&#x2c7;" horiz-adv-x="169" 
d="M165 610c-11.333 0 -23.499 -7.66699 -36.499 -23s-21.833 -36.666 -26.5 -63.999h-34c-5.33301 27.333 -14.5 48.666 -27.5 63.999s-25.167 23 -36.5 23v20c8.66699 4.66699 18 7 28 7c30 0 48 -20.333 54 -61c7.33301 40.667 25.333 61 54 61
c9.33301 0 17.666 -2.33301 24.999 -7v-20z" />
    <glyph glyph-name="breve" unicode="&#x2d8;" horiz-adv-x="139" 
d="M132 592c0 -18.667 -6 -34.334 -18 -47.001s-27 -19 -45 -19c-17.333 0 -32 6.33301 -44 19s-18 28.334 -18 47.001c0 13.333 2 24.666 6 33.999h28v-12c0 -30 9.33301 -45 28 -45c19.333 0 29 15 29 45v12h28c4 -9.33301 6 -20.666 6 -33.999z" />
    <glyph glyph-name="dotaccent" unicode="&#x2d9;" horiz-adv-x="127" 
d="M86 537h-44v84h44v-84z" />
    <glyph glyph-name="ring" unicode="&#x2da;" horiz-adv-x="101" 
d="M93 582c0 -14.667 -4 -27.334 -12 -38.001s-18 -16 -30 -16s-22.167 5.33301 -30.5 16s-12.5 23.334 -12.5 38.001s4.16699 27.334 12.5 38.001s18.5 16 30.5 16s22 -5.33301 30 -16s12 -23.334 12 -38.001zM72 582c0 21.333 -7 32 -21 32s-21 -10.667 -21 -32
c0 -22 7 -33 21 -33s21 11 21 33z" />
    <glyph glyph-name="ogonek" unicode="&#x2db;" horiz-adv-x="92" 
d="M87 -115c-5.33301 -5.33301 -16 -8.00098 -32 -8.00098s-28.5 4.83301 -37.5 14.5s-13.5 22.834 -13.5 39.501c0 36.667 22 64.667 66 84l6 -10c-25.333 -18 -38 -40.333 -38 -67c0 -22 13 -33 39 -33h10v-20z" />
    <glyph glyph-name="tilde" unicode="&#x2dc;" horiz-adv-x="159" 
d="M154 592c0 -42 -13.666 -63 -40.999 -63c-8.66699 0 -20.334 6.5 -35.001 19.5s-24 19.5 -28 19.5c-8 0 -12 -5 -12 -15v-23h-26c-4.66699 9.33301 -7 19.333 -7 30c0 41.333 13.333 62 40 62c9.33301 0 21.5 -6.33301 36.5 -19s24.167 -19 27.5 -19c8 0 12 5 12 15v23
h26c4.66699 -8 7 -18 7 -30z" />
    <glyph glyph-name="hungarumlaut" unicode="&#x2dd;" horiz-adv-x="143" 
d="M138 646l-38 -122h-31l27 122h42zM72 646l-34 -122h-29l21 122h42z" />
    <glyph glyph-name="Omega" unicode="&#x3a9;" horiz-adv-x="244" 
d="M244 606h-9c-17.333 0 -26 -13 -26 -39v-88h31v-60h-29v-419h-56v419h-25v60h25v66c0 41.333 6.33301 71.833 19 91.5s33.667 29.5 63 29.5h7v-60zM122 606h-9c-17.333 0 -26 -13 -26 -39v-88h31v-60h-29v-419h-56v419h-25v60h25v66c0 41.333 6.33301 71.833 19 91.5
s33.667 29.5 63 29.5h7v-60z" />
    <glyph glyph-name="pi" unicode="&#x3c0;" horiz-adv-x="474" 
d="M460 305c0 -62.667 -21.333 -116.167 -64 -160.5s-95.667 -66.5 -159 -66.5s-116.333 22 -159 66s-64 97.667 -64 161s21.333 117.166 64 161.499s95.667 66.5 159 66.5s116.333 -22.167 159 -66.5s64 -98.166 64 -161.499zM425 305
c0 54.667 -17.667 100.834 -53 138.501s-80.333 56.5 -135 56.5s-99.667 -18.833 -135 -56.5s-53 -83.834 -53 -138.501s17.667 -100.667 53 -138s80.333 -56 135 -56s99.667 18.667 135 56s53 83.333 53 138zM320 339c0 -38.667 -20 -58 -60 -58h-43v-85h-38v221h81
c40 0 60 -18.667 60 -56v-22zM281 338v23c0 18.667 -8.33301 28 -25 28h-39v-77h39c16.667 0 25 8.66699 25 26z" />
    <glyph glyph-name="endash" unicode="&#x2013;" horiz-adv-x="400" 
d="M338 286h-275v59h275v-59z" />
    <glyph glyph-name="emdash" unicode="&#x2014;" horiz-adv-x="600" 
d="M538 286h-475v59h475v-59z" />
    <glyph glyph-name="quoteleft" unicode="&#x2018;" horiz-adv-x="92" 
d="M18 588c0 23.333 4.83301 42.167 14.5 56.5s23.5 21.5 41.5 21.5v-20c-17.333 0 -26 -16.333 -26 -49h26v-100h-56v91z" />
    <glyph glyph-name="quoteright" unicode="&#x2019;" horiz-adv-x="92" 
d="M74 575c0 -23.333 -4.83301 -42.167 -14.5 -56.5s-23.5 -21.5 -41.5 -21.5v20c17.333 0 26 16.333 26 49h-26v100h56v-91z" />
    <glyph glyph-name="quotesinglbase" unicode="&#x201a;" horiz-adv-x="92" 
d="M74 9c0 -23.333 -4.83301 -42.167 -14.5 -56.5s-23.5 -21.5 -41.5 -21.5v20c17.333 0 26 16.333 26 49h-26v100h56v-91z" />
    <glyph glyph-name="quotedblleft" unicode="&#x201c;" horiz-adv-x="166" 
d="M92 588c0 23.333 4.83301 42.167 14.5 56.5s23.5 21.5 41.5 21.5v-20c-17.333 0 -26 -16.333 -26 -49h26v-100h-56v91zM18 588.001c0 23.333 4.83301 42.167 14.5 56.5s23.5 21.5 41.5 21.5v-20c-17.333 0 -26 -16.333 -26 -49h26v-100h-56v91z" />
    <glyph glyph-name="quotedblright" unicode="&#x201d;" horiz-adv-x="166" 
d="M148 575c0 -23.333 -4.83301 -42.167 -14.5 -56.5s-23.5 -21.5 -41.5 -21.5v20c17.333 0 26 16.333 26 49h-26v100h56v-91zM74 574.999c0 -23.333 -4.83301 -42.167 -14.5 -56.5s-23.5 -21.5 -41.5 -21.5v20c17.333 0 26 16.333 26 49h-26v100h56v-91z" />
    <glyph glyph-name="quotedblbase" unicode="&#x201e;" horiz-adv-x="166" 
d="M148 9c0 -23.333 -4.83301 -42.167 -14.5 -56.5s-23.5 -21.5 -41.5 -21.5v20c17.333 0 26 16.333 26 49h-26v100h56v-91zM74 8.99902c0 -23.333 -4.83301 -42.167 -14.5 -56.5s-23.5 -21.5 -41.5 -21.5v20c17.333 0 26 16.333 26 49h-26v100h56v-91z" />
    <glyph glyph-name="dagger" unicode="&#x2020;" horiz-adv-x="221" 
d="M216 446c0 -5.33301 -2.66504 -8 -7.99805 -8c-38 0 -65.333 2.66699 -82 8c4.66699 -19.333 7 -79.333 7 -180c0 -187.333 -2 -297 -6 -329c0 -6 -2.33301 -9 -7 -9h-18c-5.33301 0 -8 3 -8 9c-3.33301 35.333 -5 145 -5 329c0 100.667 2.33301 160.667 7 180
c-18 -5.33301 -45.333 -8 -82 -8c-5.33301 0 -8 2.66699 -8 8v25c0 4.66699 2.66699 7 8 7c35.333 0 62.666 -2.33301 81.999 -7c-4.66699 19.333 -7 81.333 -7 186c0 6 2.33301 9 7 9h29c5.33301 0 8 -3 8 -9c0 -104.667 -2.33301 -166.667 -7 -186
c19.333 4.66699 46.666 7 81.999 7c5.33301 0 8 -2.33301 8 -7v-25z" />
    <glyph glyph-name="daggerdbl" unicode="&#x2021;" horiz-adv-x="221" 
d="M216 123c0 -5.33301 -2.66504 -8 -7.99805 -8c-36 0 -63.333 2.66699 -82 8c4.66699 -19.333 7 -81.333 7 -186c0 -6 -2.33301 -9 -7 -9h-30c-4.66699 0 -7 3 -7 9c0 104.667 2.33301 166.667 7 186c-18.667 -5.33301 -46 -8 -82 -8c-5.33301 0 -8 2.66699 -8 8v25
c0 4.66699 2.66699 7 8 7c36 0 63.333 -2.33301 82 -7c-4.66699 19.333 -7 69 -7 149s2.33301 129.667 7 149c-18 -5.33301 -45.333 -8 -82 -8c-5.33301 0 -8 2.66699 -8 8v25c0 4.66699 2.66699 7 8 7c35.333 0 62.666 -2.33301 81.999 -7
c-4.66699 19.333 -7 81.333 -7 186c0 6 2.33301 9 7 9h30c4.66699 0 7 -3 7 -9c0 -104.667 -2.33301 -166.667 -7 -186c19.333 4.66699 46.666 7 81.999 7c5.33301 0 8 -2.33301 8 -7v-25c0 -5.33301 -2.66699 -8 -8 -8c-38 0 -65.333 2.66699 -82 8
c4.66699 -19.333 7 -69 7 -149s-2.33301 -129.667 -7 -149c18 4.66699 45.333 7 82 7c5.33301 0 8 -2.33301 8 -7v-25z" />
    <glyph glyph-name="bullet" unicode="&#x2022;" horiz-adv-x="175" 
d="M165 333c0 -24.667 -7.16895 -44 -21.502 -58s-32.833 -21 -55.5 -21c-23.333 0 -42.166 7 -56.499 21s-21.5 33.333 -21.5 58c0 24 7.33301 43 22 57s33.334 21 56.001 21s41.167 -7 55.5 -21s21.5 -33 21.5 -57z" />
    <glyph glyph-name="ellipsis" unicode="&#x2026;" horiz-adv-x="270" 
d="M252 0h-56v100h56v-100zM163 0h-56v100h56v-100zM74 0h-56v100h56v-100z" />
    <glyph glyph-name="perthousand" unicode="&#x2030;" horiz-adv-x="500" 
d="M145 418c0 -23.333 -6 -42 -18 -56s-27.333 -21 -46 -21s-34 7 -46 21s-18 32.667 -18 56v179c0 24 6 42.833 18 56.5s27.333 20.5 46 20.5s34 -6.83301 46 -20.5s18 -32.5 18 -56.5v-179zM324 664l-277 -682l-23 18l277 681zM486 66c0 -23.333 -5.83301 -42 -17.5 -56
s-26.834 -21 -45.501 -21s-34 7 -46 21s-18 32.667 -18 56v180c0 23.333 6 41.833 18 55.5s27.333 20.5 46 20.5s33.834 -6.83301 45.501 -20.5s17.5 -32.167 17.5 -55.5v-180zM330 66c0 -23.333 -5.83301 -42 -17.5 -56s-26.834 -21 -45.501 -21s-34 7 -46 21
s-18 32.667 -18 56v180c0 23.333 6 41.833 18 55.5s27.333 20.5 46 20.5s33.834 -6.83301 45.501 -20.5s17.5 -32.167 17.5 -55.5v-180zM101 408v199c0 15.333 -6.66699 23 -20 23c-5.33301 0 -10 -2.16699 -14 -6.5s-6 -9.83301 -6 -16.5v-199
c0 -6.66699 2 -12.167 6 -16.5s8.66699 -6.5 14 -6.5c13.333 0 20 7.66699 20 23zM443 56v199c0 6.66699 -2 12.167 -6 16.5s-8.66699 6.5 -14 6.5c-13.333 0 -20 -7.66699 -20 -23v-199c0 -14.667 6.66699 -22 20 -22c5.33301 0 10 2 14 6s6 9.33301 6 16zM287 56v199
c0 6.66699 -2 12.167 -6 16.5s-8.66699 6.5 -14 6.5c-13.333 0 -20 -7.66699 -20 -23v-199c0 -14.667 6.66699 -22 20 -22c5.33301 0 10 2 14 6s6 9.33301 6 16z" />
    <glyph glyph-name="guilsinglleft" unicode="&#x2039;" horiz-adv-x="145" 
d="M126 0h-26c-9.33301 80 -37.666 136 -84.999 168v51c47.333 32 75.666 88 84.999 168h26c0 -93.333 -18 -158 -54 -194c36 -36 54 -100.333 54 -193z" />
    <glyph glyph-name="guilsinglright" unicode="&#x203a;" horiz-adv-x="145" 
d="M130 168c-47.333 -32 -75.666 -88 -84.999 -168h-26c0 92.667 18 157 54 193c-36 36 -54 100.667 -54 194h26c9.33301 -80 37.666 -136 84.999 -168v-51z" />
    <glyph glyph-name="fraction" unicode="&#x2044;" horiz-adv-x="83" 
d="M305 716l-499 -785l-27 19l500 785z" />
    <glyph glyph-name="trademark" unicode="&#x2122;" horiz-adv-x="299" 
d="M276 522h-27v117l-10 -41l-22 -76h-25l-21 76l-10 41v-117h-27v144h42l20 -80l9 -38l10 38l18 80h43v-144zM110 642h-36v-120h-29v120h-36v24h101v-24z" />
    <glyph glyph-name="product" unicode="&#x220f;" horiz-adv-x="233" 
d="M156 0l-40 289.001h-20v-289h-70v666h101c24 0 44.667 -7.83301 62 -23.5s26 -42.834 26 -81.501v-173c0 -38 -12 -63.333 -36 -76l45 -312h-68zM96 352.001h27c16 0 24 11.667 24 35v176c0 21.333 -7 32 -21 32h-30v-243z" />
    <glyph glyph-name="radical" unicode="&#x221a;" horiz-adv-x="347" 
d="M324 0h-56v666h56v-666zM244 606h-9c-17.333 0 -26 -13 -26 -39v-88h31v-60h-29v-419h-56v419h-25v60h25v66c0 41.333 6.33301 71.833 19 91.5s33.667 29.5 63 29.5h7v-60zM122 606h-9c-17.333 0 -26 -13 -26 -39v-88h31v-60h-29v-419h-56v419h-25v60h25v66
c0 41.333 6.33301 71.833 19 91.5s33.667 29.5 63 29.5h7v-60z" />
    <glyph glyph-name="approxequal" unicode="&#x2248;" horiz-adv-x="347" 
d="M321 535h-50v78h50v-78zM244 606h-9c-17.333 0 -26 -13 -26 -39v-88h31v-60h-29v-419h-56v419h-25v60h25v66c0 41.333 6.33301 71.833 19 91.5s33.667 29.5 63 29.5h7v-60zM122 606h-9c-17.333 0 -26 -13 -26 -39v-88h31v-60h-29v-419h-56v419h-25v60h25v66
c0 41.333 6.33301 71.833 19 91.5s33.667 29.5 63 29.5h7v-60zM324 0h-56v479h56v-479z" />
    <glyph glyph-name="notequal" unicode="&#x2260;" horiz-adv-x="507" 
d="M483 0h-459v480h459v-480z" />
    <glyph glyph-name="lessequal" unicode="&#x2264;" horiz-adv-x="310" 
d="M257 145l-201 80v13l201 80v-173z" />
    <glyph glyph-name="greaterequal" unicode="&#x2265;" horiz-adv-x="310" 
d="M264 225l-201 -80v173l201 -80v-13z" />
    <glyph glyph-name="fi" unicode="&#xfb01;" horiz-adv-x="226" 
d="M200 535h-51v78h51v-78zM119 419h-29v-419h-57v419h-26v61h26v65c0 40.667 6.33301 71 19 91s33.667 30 63 30h7v-61h-8c-17.333 0 -26 -12.667 -26 -38v-87h31v-61zM203 0h-57v480h57v-480z" />
    <glyph glyph-name="fl" unicode="&#xfb02;" horiz-adv-x="226" 
d="M203 0h-57v666h57v-666zM119 419h-29v-419h-57v419h-26v61h26v65c0 40.667 6.33301 71 19 91s33.667 30 63 30h7v-61h-8c-17.333 0 -26 -12.667 -26 -38v-87h31v-61z" />
    <glyph glyph-name=".null" horiz-adv-x="0" 
 />
    <glyph glyph-name="nonmarkingreturn" horiz-adv-x="333" 
 />
    <glyph glyph-name="NUL" horiz-adv-x="1000" 
 />
    <glyph glyph-name="apple" horiz-adv-x="967" 
d="M868 0h-767v750h767v-750zM859 -104h-6l-3 20l-10 -21h-2l-10 21l-3 -20h-6l6 34h1l13 -26l13 26h1zM806 -87c0 -12 -5.66699 -18 -17 -18c-4.66699 0 -8.66699 1.66699 -12 5s-5 7.33301 -5 12c0 12 6 18 18 18c4.66699 0 8.5 -1.66699 11.5 -5s4.5 -7.33301 4.5 -12z
M758 -96l-1.00195 -5.99902c-2 -2 -5.33301 -3 -10 -3c-12 0 -18 5.66699 -18 17c0 5.33301 1.83301 9.66602 5.5 12.999s7.83398 5 12.501 5s8.33398 -1 11.001 -3l-2 -5c-2 2 -5 3 -9 3c-8 0 -12 -4 -12 -12c0 -8.66699 4.33301 -13 13 -13c2.66699 0 6 1.33301 10 4z
M701.998 -70.999l-13 -19v-14h-6v14l-14 19l6 1l11 -15l9 14h7zM655.998 -103.999h-6v15h-16v-15h-6v33h6v-13h16v13h6v-33zM611.998 -81.999c0 -8 -5.66699 -12 -17 -12v-10h-6v33c15.333 2 23 -1.66699 23 -11zM575.998 -103.999h-6l-4 8h-14l-3 -8h-6l15 34h2z
M533.998 -103.999h-7l-8 11h-5v-11h-6v33c15.333 2 23 -1.33301 23 -10c0 -4.66699 -2.33301 -8 -7 -10zM490.998 -100.999c-4 -2.66699 -8.33203 -3.99902 -12.999 -3.99902c-12 0 -18 5.66699 -18 17c0 5.33301 1.83301 9.66602 5.5 12.999s8.16699 5 13.5 5
c4 0 8 -1.33301 12 -4l-2 -5c-2.66699 2.66699 -6.33398 4 -11.001 4c-8 0 -12 -4.33301 -12 -13c0 -8 4.33301 -12 13 -12c1.33301 0 3.33301 0.666992 6 2v7h-9v5h15v-15zM446.999 -86.998c0 -12 -5.66699 -18 -17 -18c-4.66699 0 -8.66699 1.66699 -12 5
s-5 7.33301 -5 12c0 12 6 18 18 18c4.66699 0 8.5 -1.66699 11.5 -5s4.5 -7.33301 4.5 -12zM399.999 -81.998c0 -8 -5.66699 -12 -17 -12v-10h-6v33c15.333 2 23 -1.66699 23 -11zM363.999 -70.998l-13 -19v-14h-6v14l-14 19l6 1l11 -15l9 14h7zM322.999 -70.998v-5h-12v-28
h-6v28h-12v5h30zM266.999 -70.998l-12 -34h-1l-11 23l-10 -23h-1l-12 34l6 1l7 -23l10 23h1l10 -23l7 22h6zM210.999 -70.998l-12 -34h-1l-11 23l-10 -23h-1l-12 34l6 1l7 -23l10 23h1l10 -23l7 22h6zM154.999 -70.998l-12 -34h-1l-11 23l-10 -23h-1l-12 34l6 1l7 -23l10 23
h1l10 -23l7 22h6zM715.999 -100.998c0 -2.66699 -1.33301 -4 -4 -4s-4 1.33301 -4 4s1.33301 4 4 4s4 -1.33301 4 -4zM283.999 -100.998c0 -2.66699 -1.33301 -4 -4 -4s-4 1.33301 -4 4s1.33301 4 4 4s4 -1.33301 4 -4zM558.999 686.002c0 5.33301 -0.333008 9.33301 -1 12
c-1.33301 -0.666992 -7 -1 -17 -1s-16 0.333008 -18 1l-1 -12h2c2.66699 6 6 9 10 9c2 0 3 -1 3 -3v-23c-0.666992 -3.33301 -2.33398 -5 -5.00098 -5v-2h17v2l-4 2c-0.666992 0.666992 -1 1.66699 -1 3v23c0 2 1 3 3 3s3.83301 -0.833008 5.5 -2.5
s2.83398 -3.16699 3.50098 -4.5l1 -2h2zM503.999 662.002l0.000976562 2.00098c-4 -0.666992 -6 1 -6 5v21c0 3.33301 2 5 6 5v2h-18v-1v-1l4 -2c0.666992 -0.666992 1 -1.66699 1 -3v-9h-17v9c0.666992 3.33301 2.33398 5 5.00098 5v1v1h-17v-2l4 -2
c0.666992 -0.666992 1 -1.66699 1 -3v-21c-0.666992 -2.66699 -2.33398 -4.33398 -5.00098 -5.00098v-2h17v2c-3.33301 0 -5 1.66699 -5 5v10h17v-10c-0.666992 -3.33301 -2.33398 -5 -5.00098 -5v-2h18zM439 664.003l-4 2c-0.666992 0.666992 -1 1.66699 -1 3v21
c0.666992 3.33301 2.33398 5 5.00098 5v2h-29l-2 -10l2 -1c2 5.33301 5 8 9 8h4c2.66699 0 4 -1 4 -3v-10h-4c-3.33301 0 -5.33301 1.66699 -6 5h-2v-13h2c0 4 2 6 6 6h4v-11c0 -2 -1.33301 -3 -4 -3h-4c-2 0 -3.83301 0.833008 -5.5 2.5s-2.83398 3.16699 -3.50098 4.5
l-1 2l-2 -1l2 -11h30v2zM827 618.003v6h-685v-6h685zM696 540.003c0 10 -3.83301 18.833 -11.5 26.5s-16.167 11.5 -25.5 11.5c-5.33301 0 -10.5 -1.83301 -15.5 -5.5s-7.5 -9.16699 -7.5 -16.5c0 -10.667 3.66699 -19.667 11 -27s16 -11 26 -11
c5.33301 0 10.5 1.83301 15.5 5.5s7.5 9.16699 7.5 16.5zM589 537.003c0 8 -4.66602 13.667 -13.999 17c3.33301 2 5 5 5 9c0 10 -7 15 -21 15c-8.66699 0 -13 -3.66699 -13 -11c0 -4 1.66699 -6 5 -6c2.66699 0 4 1 4 3c0 1.33301 -0.5 2.5 -1.5 3.5s-1.5 1.83301 -1.5 2.5
c0 3.33301 2.33301 5 7 5c6.66699 0 10 -4 10 -12c0 -2.66699 -0.666992 -4.66699 -2 -6c-10.667 1.33301 -16 -0.666992 -16 -6c0 -4 2.66699 -6 8 -6c4 0 7.66699 1.66699 11 5c4 -2.66699 6 -7.66699 6 -15c0 -9.33301 -4 -14 -12 -14s-12 3 -12 9c0 2 1 3 3 3l1 -1
c1.33301 -0.666992 2.66602 -1 3.99902 -1c2.66699 0 4 1.66699 4 5s-2.33301 5 -7 5c-6 0 -9 -3.33301 -9 -10c0 -8.66699 5.33301 -13 16 -13c16.667 0 25 6.33301 25 19zM295.001 537.003c0 8 -4.66602 13.667 -13.999 17c3.33301 2 5 5 5 9c0 10 -7 15 -21 15
c-8.66699 0 -13 -3.66699 -13 -11c0 -4 1.66699 -6 5 -6c2.66699 0 4 1 4 3c0 1.33301 -0.5 2.5 -1.5 3.5s-1.5 1.83301 -1.5 2.5c0 3.33301 2.33301 5 7 5c6.66699 0 10 -4 10 -12c0 -2.66699 -0.666992 -4.66699 -2 -6c-10.667 1.33301 -16 -0.666992 -16 -6
c0 -4 2.66699 -6 8 -6c4 0 7.66699 1.66699 11 5c4 -2.66699 6 -7.66699 6 -15c0 -9.33301 -4 -14 -12 -14s-12 3 -12 9c0 2 1 3 3 3l1 -1c1.33301 -0.666992 2.66602 -1 3.99902 -1c2.66699 0 4 1.66699 4 5s-2.33301 5 -7 5c-6 0 -9 -3.33301 -9 -10
c0 -8.66699 5.33301 -13 16 -13c16.667 0 25 6.33301 25 19zM820.002 522.003c-5.33301 -0.666992 -8.66699 2 -10 8l-7 35c-0.666992 2.66699 -0.333984 4.66699 0.999023 6s2.66602 2 3.99902 2h2l-1 3h-28l1 -3c4.66699 0.666992 7.66699 -2 9 -8l3 -15h-24l-3 15
c-0.666992 2.66699 -0.333984 4.66699 0.999023 6s2.66602 2 3.99902 2h2l-1 3h-29l1 -3c5.33301 0.666992 8.66602 -2 9.99902 -8l7 -35c0.666992 -2.66699 0.333984 -4.66699 -0.999023 -6s-2.66602 -2 -3.99902 -2h-2l1 -3h29l-1 3
c-5.33301 -0.666992 -8.66602 2 -9.99902 8l-3 16h24l3 -16c0.666992 -2.66699 0.333984 -4.66699 -0.999023 -6s-2.66602 -2 -3.99902 -2h-2l1 -3h29zM498.001 519.003l-1 3.00098c-5.33301 -0.666992 -8.66602 2 -9.99902 8l-7 35
c-0.666992 2.66699 -0.333984 4.66699 0.999023 6s2.66602 2 3.99902 2h2l-1 3h-45v-17h4c-0.666992 8.66699 3.66602 13 12.999 13h4c3.33301 0 5.33301 -2 6 -6l3 -16h-4c-2.66699 0 -5 0.666992 -7 2s-3.33301 2.66602 -4 3.99902l-1 3h-3l5 -23h3
c-0.666992 7.33301 2 11 8 11h4l3 -17c0.666992 -2.66699 0.333984 -4.66699 -0.999023 -6s-2.66602 -2 -3.99902 -2h-2l1 -3h29zM202.001 522.004c-5.33301 -0.666992 -8.66797 2 -10.001 8l-7 35c-0.666992 2.66699 -0.333984 4.66699 0.999023 6s2.66602 2 3.99902 2h2
l-1 3h-27c-13.333 0 -20 -5 -20 -15c0 -8.66699 6.33301 -13.667 19 -15l-9 -16c-1.33301 -2.66699 -3.16602 -4.66699 -5.49902 -6s-4.5 -2 -6.5 -2h-2l1 -3h19l12 23c1.33301 2 3 3 5 3l3 -15c0.666992 -2.66699 0.333984 -4.66699 -0.999023 -6s-2.66602 -2 -3.99902 -2
h-2l1 -3h29zM399.999 521.004c0 5.33301 -4.33008 8.33398 -12.9971 9.00098c-2.66699 1.33301 -4.33398 6.16602 -5.00098 14.499s-2.5 16 -5.5 23s-9.16699 10.5 -18.5 10.5c-3.33301 0 -6.33301 -1.16699 -9 -3.5s-4 -4.5 -4 -6.5c0 -3.33301 1.66699 -5 5 -5
c2.66699 0 4 2 4 6s1.66699 6 5 6s5.66602 -2.66699 6.99902 -8s2.83301 -11.833 4.5 -19.5s4.83398 -13.5 9.50098 -17.5c-5.33301 0 -10 -2.16699 -14 -6.5s-7 -6.5 -9 -6.5c-3.33301 0 -5 1.33301 -5 4c0 1.33301 0.333008 2.33301 1 3s1 1.33398 1 2.00098
c0 3.33301 -1.66699 5 -5 5s-5 -2.33301 -5 -7c0 -2.66699 1.66699 -5.33398 5 -8.00098s6.66602 -4 9.99902 -4c6.66699 0 11.667 2.16699 15 6.5s6.66602 6.5 9.99902 6.5c2.66699 -4.66699 6.66699 -7 12 -7c2.66699 0 4 1 4 3zM827.002 475.005v6h-685v-6h685z
M827.002 378.005v62h-147v-62h36v28h11v-65h-14v-33h81v33h-14v65h11v-28h36zM648.002 406.005v34h-81v-34h11l-15 -23l-15 23h10v34h-62v-34h12l37 -46v-19h-14v-33h81v33h-15v20l37 45h14zM458.002 308.005v33h-14v65h14v34h-96c-14 0 -25.333 -3.83301 -34 -11.5
s-13 -17.167 -13 -28.5c0 -12 4.33301 -21.667 13 -29s20 -11 34 -11h30v-19h-15v-33h81zM283.002 308.005v33h-14v65h14v34h-141v-62h41v28h33v-20h-24v-24h24v-21h-33v28h-41v-61h141zM827.002 271.005v6h-685v-6h685zM728.002 192.005c0 10 -3.83301 18.833 -11.5 26.5
s-16.167 11.5 -25.5 11.5c-5.33301 0 -10.5 -1.83301 -15.5 -5.5s-7.5 -9.16699 -7.5 -16.5c0 -10.667 3.66699 -19.667 11 -27s16 -11 26 -11c5.33301 0 10.5 1.83301 15.5 5.5s7.5 9.16699 7.5 16.5zM203.002 217.005c-4.66699 8.66699 -10.667 13 -18 13
c-10 0 -14.667 -7.66699 -14 -23c-4.66699 15.333 -11.667 23 -21 23c-8 0 -12 -4 -12 -12l3 -1c0 4 2.66699 6 8 6c10.667 0 18.667 -11 24 -33c1.33301 -5.33301 1.5 -9.16602 0.5 -11.499s-2.16699 -3.5 -3.5 -3.5h-3l1 -4h28l-1 4c-4.66699 -1.33301 -8 1.66699 -10 9
c-3.33301 11.333 -5 19.666 -5 24.999c0 8.66699 3 13 9 13c3.33301 0 7.33301 -2.33301 12 -7zM823.002 171.005l-1 3.00098c-5.33301 -0.666992 -8.66602 2 -9.99902 8l-7 35c-0.666992 2.66699 -0.333984 4.66699 0.999023 6s2.66602 2 3.99902 2h2l-1 3h-45v-17h4
c-0.666992 8.66699 3.66602 13 12.999 13h4c3.33301 0 5.33301 -2 6 -6l3 -16h-4c-2.66699 0 -5 0.666992 -7 2s-3.33301 2.66602 -4 3.99902l-1 3h-3l5 -23h3c-0.666992 7.33301 2 11 8 11h4l3 -17c0.666992 -2.66699 0.333984 -4.66699 -0.999023 -6
s-2.66602 -2 -3.99902 -2h-2l1 -3h29zM621.002 225.006l-0.993164 3.00195h-29l1 -3c5.33301 0.666992 8.66602 -2.33301 9.99902 -9l5 -21c3.33301 -13.333 -0.333984 -20 -11.001 -20c-9.33301 0 -16 7.33301 -20 22l-4 19
c-0.666992 3.33301 -0.333984 5.66602 0.999023 6.99902s2.66602 2 3.99902 2h2v3h-24l1 -3c6 0.666992 9.66699 -2.33301 11 -9l4 -19c3.33301 -18 12.666 -27 27.999 -27c16 0 22.333 8 19 24l-5 22c-0.666992 3.33301 -0.333984 5.66602 0.999023 6.99902
s2.66602 2 3.99902 2h3zM522.009 174.008c-4 0 -6.99707 3.33203 -8.99707 9.99902l-7 32c-0.666992 2.66699 -0.333984 4.83398 0.999023 6.50098s3 2.5 5 2.5h2l-1 3h-14l-29 -42l-5 30c-0.666992 2.66699 -0.333984 4.66699 0.999023 6s2.66602 2 3.99902 2l2 1l-1 3h-21
l1 -3c4.66699 0 7.66699 -3 9 -9l8 -45l3 -1l30 44l6 -30c0.666992 -3.33301 0.5 -5.83301 -0.5 -7.5s-2.16699 -2.5 -3.5 -2.5h-2l1 -3h21zM414.012 171.007l-1 4c-4.66699 -1.33301 -8 1.66699 -10 9l-8 31c-2 6 0.666992 9.33301 8 10l-1 3h-30
c-16.667 0 -25 -7.33301 -25 -22c0 -10 3.66699 -18.333 11 -25s15.333 -10 24 -10h32zM306.012 174.007c-5.33301 -0.666992 -8.66797 2 -10.001 8l-7 35c-0.666992 2.66699 -0.333984 4.66699 0.999023 6s2.66602 2 3.99902 2h2l-1 3h-27c-13.333 0 -20 -5 -20 -15
c0 -8.66699 6.33301 -13.667 19 -15l-9 -16c-1.33301 -2.66699 -3.16602 -4.66699 -5.49902 -6s-4.5 -2 -6.5 -2h-2l1 -3h19l12 23c1.33301 2 3 3 5 3l3 -15c0.666992 -2.66699 0.333984 -4.66699 -0.999023 -6s-2.66602 -2 -3.99902 -2h-2l1 -3h29zM827.01 127.007v6h-685
v-6h685zM694.01 46.0068l0.000976562 2c-4 0.666992 -6 2.33398 -6 5.00098v20l6 6v2h-10l-24 -26v18c0 1.33301 0.5 2.5 1.5 3.5s1.83301 1.5 2.5 1.5l2 1v2h-15v-2c4 -0.666992 6 -2.66699 6 -6v-28h3l25 28v-20c-0.666992 -2.66699 -2.33398 -4.33398 -5.00098 -5.00098
v-2h14zM633.011 48.0068l-4 2c-0.666992 0.666992 -1 1.66699 -1 3v21c0.666992 3.33301 2.33398 5 5.00098 5v2h-29l-2 -10l2 -1c2 5.33301 5 8 9 8h4c2.66699 0 4 -1 4 -3v-10h-4c-3.33301 0 -5.33301 1.66699 -6 5h-2v-13h2c0 4 2 6 6 6h4v-11c0 -2 -1.33301 -3 -4 -3h-4
c-2 0 -3.83301 0.833008 -5.5 2.5s-2.83398 3.16699 -3.50098 4.5l-1 2l-2 -1l2 -11h30v2zM583.011 81.0068h-15.001v-2l2 -2c0.666992 -0.666992 0.666992 -1.66699 0 -3l-9 -19l-5 10l4 8l6 6v2h-26l1 -2c2 0 4.33301 -2 7 -6l3 -5l-7 -13l-8 18
c-1.33301 3.33301 -0.666016 5.33301 2.00098 6v2h-13v-2c2.66699 -0.666992 4.66699 -2.66699 6 -6l13 -27h1c0.666992 -0.666992 1 -0.666992 1 0l8 16l9 -16h1l12 27c0.666992 2 1.66699 3.5 3 4.5s2.33301 1.5 3 1.5h1v2zM480.01 79.0068l-0.000976562 1.99902h-15v-2
l2 -1c0.666992 -0.666992 0.333984 -2 -0.999023 -4l-6 -9l-6 9c-1.33301 2.66699 -0.333008 4.33398 3 5.00098v2h-15v-2c3.33301 0 6 -1.66699 8 -5l8 -12v-8c0 -3.33301 -1.66699 -5.33301 -5 -6v-2h17v2c-3.33301 0 -5 2 -5 6v8l8 12zM425.009 64.0059
c0 12 -6.66699 18 -20 18s-20 -6 -20 -18c0 -12.667 6.66699 -19 20 -19s20 6.33301 20 19zM364.009 46.0059l0.000976562 2.00098c-3.33301 0 -5 1.66699 -5 5v20c0 3.33301 1.66699 5.33301 5 6v2h-18c-8.66699 0 -13 -3 -13 -9c0 -3.33301 3 -6.33301 9 -9l-7 -10l-8 -5
v-2h11l7 12c2 2.66699 4.33301 4 7 4v-9c-0.666992 -2.66699 -2.33398 -4.33398 -5.00098 -5.00098v-2h17zM309.01 46.0068l0.000976562 2c-4 0.666992 -6 2.66699 -6 6v20c0 3.33301 2 5 6 5v2h-18v-2c4 0 6 -1.66699 6 -5v-9c-1.33301 0 -2.66602 0.666992 -3.99902 2
l-8 8c-1.33301 2 -1 3.33301 1 4v2h-14v-2c3.33301 -0.666992 6 -2 8 -4l10 -9l-13 -13l-7 -5v-2h17v2l-3 1c-0.666992 0.666992 -0.333984 2 0.999023 4l8 8c1.33301 1.33301 2.66602 2 3.99902 2v-9c0 -2 -0.5 -3.5 -1.5 -4.5s-2.16699 -1.5 -3.5 -1.5h-1v-2h18z
M606.011 -82.9932c0 5.33301 -3.66699 7.66699 -11 7v-13c7.33301 0 11 2 11 6zM525.011 -81.9922c0 5.33301 -3.66699 7.33301 -11 6v-12c7.33301 -0.666992 11 1.33301 11 6zM394.011 -82.9922c0 5.33301 -3.66699 7.66699 -11 7v-13c7.33301 0 11 2 11 6z
M564.011 -91.9912l-5 12l-5 -12h10zM800.011 -87.9912c0 8.66699 -3.66699 13 -11 13s-11 -4 -11 -12c0 -8.66699 3.66699 -13 11 -13s11 4 11 12zM441.011 -87.9912c0 8.66699 -3.66699 13 -11 13s-11 -4 -11 -12c0 -8.66699 3.66699 -13 11 -13s11 4 11 12z
M176.011 548.009h-5c-10 0 -15 5 -15 15c0 6 2.66699 9 8 9s8.33301 -1.66699 9 -5zM566.011 553.009c-2 -2.66699 -4.33203 -4 -6.99902 -4s-4 0.666992 -4 2c0 2 1.33301 3 4 3c3.33301 0 5.66602 -0.333008 6.99902 -1zM272.012 553.009
c-2 -2.66699 -4.33203 -4 -6.99902 -4s-4 0.666992 -4 2c0 2 1.33301 3 4 3c3.33301 0 5.66602 -0.333008 6.99902 -1zM684.013 535.009c0 -8.66699 -3.66699 -13 -11 -13c-6 0 -11.667 3.83301 -17 11.5s-8 16.5 -8 26.5c0 9.33301 3.66699 14 11 14c6 0 11.667 -4 17 -12
s8 -17 8 -27zM392.013 384.009h-11c-8.66699 0 -13 3.66699 -13 11s4.33301 11 13 11h11v-22zM280.013 200.009h-5c-10 0 -15 5 -15 15c0 6 2.66699 9 8 9s8.33301 -1.66699 9 -5zM716.013 187.009c0 -8.66699 -3.66699 -13 -11 -13c-6 0 -11.667 3.83301 -17 11.5
s-8 16.5 -8 26.5c0 9.33301 3.66699 14 11 14c6 0 11.667 -4 17 -12s8 -17 8 -27zM393.013 182.009c0 -4.66699 -1.33301 -7 -4 -7h-5c-7.33301 0 -13.5 3.33301 -18.5 10s-7.5 14 -7.5 22c0 11.333 4.66699 17 14 17h6c2.66699 -0.666992 4.66699 -3 6 -7zM553.013 79.0088
c3.33301 0 3.33301 -3 0 -9c-3.33301 6 -3.33301 9 0 9zM352.013 64.0088h-3c-5.33301 0 -8 2.66699 -8 8c0 4 2.33301 6 7 6c2.66699 0 4 -1.33301 4 -4v-10zM417.013 64.0088c0 -11.333 -4 -17 -12 -17s-12 5.66699 -12 17c0 10.667 4 16 12 16s12 -5.33301 12 -16z" />
  </font>
</defs>
</svg>
